<svg width="343" height="116" viewBox="0 0 343 116" fill="none" xmlns="http://www.w3.org/2000/svg">
<rect width="343" height="116" rx="16" fill="white" style="fill:white;fill-opacity:1;"/>
<rect x="16.5" y="48.5" width="203" height="31" rx="7.5" fill="white" style="fill:white;fill-opacity:1;"/>
<rect x="16.5" y="48.5" width="203" height="31" rx="7.5" stroke="#DFE5ED" style="stroke:#DFE5ED;stroke:color(display-p3 0.8750 0.8991 0.9292);stroke-opacity:1;"/>
<g clip-path="url(#clip0_35852_112689)">
<path fill-rule="evenodd" clip-rule="evenodd" d="M200 56.667C204.05 56.667 207.333 59.9499 207.333 64C207.333 68.0501 204.05 71.333 200 71.333C195.95 71.333 192.667 68.0501 192.667 64C192.667 59.9499 195.95 56.667 200 56.667ZM203.54 61.3623C203.28 61.102 202.858 61.102 202.598 61.3623L198.931 65.2236L197.402 63.6953C197.142 63.435 196.72 63.4351 196.46 63.6953C196.2 63.9557 196.2 64.3773 196.46 64.6377L198.46 66.6377C198.72 66.898 199.142 66.898 199.402 66.6377L203.54 62.3047C203.8 62.0443 203.8 61.6227 203.54 61.3623Z" fill="#00C282" style="fill:#00C282;fill:color(display-p3 0.0000 0.7608 0.5098);fill-opacity:1;"/>
</g>
<path d="M29.1449 69V59.5455H32.4503C33.1089 59.5455 33.6521 59.6593 34.0799 59.8871C34.5077 60.1117 34.8262 60.4149 35.0355 60.7965C35.2448 61.1751 35.3494 61.5952 35.3494 62.0568C35.3494 62.4631 35.2771 62.7985 35.1325 63.0632C34.9909 63.3279 34.8031 63.5372 34.5692 63.6911C34.3384 63.8449 34.0876 63.9588 33.8168 64.0327V64.125C34.1061 64.1435 34.3969 64.245 34.6893 64.4297C34.9817 64.6143 35.2263 64.879 35.4233 65.2237C35.6203 65.5684 35.7188 65.9901 35.7188 66.4886C35.7188 66.9626 35.611 67.3888 35.3956 67.7674C35.1802 68.146 34.8401 68.446 34.3754 68.6676C33.9106 68.8892 33.3059 69 32.5611 69H29.1449ZM30.2898 67.9844H32.5611C33.3089 67.9844 33.8398 67.8397 34.1538 67.5504C34.4708 67.258 34.6293 66.9041 34.6293 66.4886C34.6293 66.1686 34.5477 65.8731 34.3846 65.6023C34.2215 65.3284 33.9891 65.1098 33.6875 64.9467C33.3859 64.7805 33.0289 64.6974 32.6165 64.6974H30.2898V67.9844ZM30.2898 63.7003H32.4134C32.758 63.7003 33.0689 63.6326 33.3459 63.4972C33.6259 63.3617 33.8475 63.1709 34.0107 62.9247C34.1768 62.6785 34.2599 62.3892 34.2599 62.0568C34.2599 61.6413 34.1153 61.2889 33.826 60.9996C33.5367 60.7073 33.0781 60.5611 32.4503 60.5611H30.2898V63.7003ZM45.5772 64.2727C45.5772 65.2699 45.3972 66.1316 45.0371 66.858C44.677 67.5843 44.1831 68.1444 43.5552 68.5384C42.9274 68.9323 42.2103 69.1293 41.4039 69.1293C40.5976 69.1293 39.8805 68.9323 39.2527 68.5384C38.6248 68.1444 38.1309 67.5843 37.7708 66.858C37.4107 66.1316 37.2306 65.2699 37.2306 64.2727C37.2306 63.2756 37.4107 62.4138 37.7708 61.6875C38.1309 60.9612 38.6248 60.401 39.2527 60.0071C39.8805 59.6132 40.5976 59.4162 41.4039 59.4162C42.2103 59.4162 42.9274 59.6132 43.5552 60.0071C44.1831 60.401 44.677 60.9612 45.0371 61.6875C45.3972 62.4138 45.5772 63.2756 45.5772 64.2727ZM44.4693 64.2727C44.4693 63.4541 44.3323 62.7631 44.0584 62.1999C43.7876 61.6367 43.4198 61.2105 42.9551 60.9212C42.4934 60.6319 41.9764 60.4872 41.4039 60.4872C40.8315 60.4872 40.3129 60.6319 39.8482 60.9212C39.3865 61.2105 39.0188 61.6367 38.7449 62.1999C38.474 62.7631 38.3386 63.4541 38.3386 64.2727C38.3386 65.0914 38.474 65.7823 38.7449 66.3455C39.0188 66.9087 39.3865 67.335 39.8482 67.6243C40.3129 67.9136 40.8315 68.0582 41.4039 68.0582C41.9764 68.0582 42.4934 67.9136 42.9551 67.6243C43.4198 67.335 43.7876 66.9087 44.0584 66.3455C44.3323 65.7823 44.4693 65.0914 44.4693 64.2727ZM54.9995 59.5455V69H53.8915L48.7395 61.5767H48.6472V69H47.5023V59.5455H48.6103L53.7807 66.9872H53.873V59.5455H54.9995ZM63.4949 59.5455H64.6398V65.8054C64.6398 66.4517 64.4875 67.0288 64.1828 67.5366C63.8812 68.0413 63.4549 68.4399 62.904 68.7322C62.3531 69.0215 61.7068 69.1662 60.9651 69.1662C60.2234 69.1662 59.5771 69.0215 59.0262 68.7322C58.4753 68.4399 58.0475 68.0413 57.7428 67.5366C57.4412 67.0288 57.2904 66.4517 57.2904 65.8054V59.5455H58.4353V65.7131C58.4353 66.1747 58.5368 66.5856 58.74 66.9457C58.9431 67.3027 59.2324 67.5843 59.6079 67.7905C59.9864 67.9936 60.4388 68.0952 60.9651 68.0952C61.4914 68.0952 61.9438 67.9936 62.3224 67.7905C62.7009 67.5843 62.9902 67.3027 63.1903 66.9457C63.3934 66.5856 63.4949 66.1747 63.4949 65.7131V59.5455ZM72.0966 61.9091C72.0412 61.4413 71.8165 61.0781 71.4226 60.8196C71.0286 60.5611 70.5455 60.4318 69.973 60.4318C69.5545 60.4318 69.1882 60.4995 68.8743 60.6349C68.5634 60.7704 68.3203 60.9566 68.1449 61.1935C67.9725 61.4305 67.8864 61.6998 67.8864 62.0014C67.8864 62.2538 67.9464 62.4708 68.0664 62.6523C68.1895 62.8308 68.3465 62.9801 68.5373 63.1001C68.7281 63.2171 68.9281 63.314 69.1374 63.391C69.3467 63.4648 69.5391 63.5249 69.7145 63.571L70.6747 63.8295C70.9209 63.8942 71.1948 63.9834 71.4964 64.0973C71.8011 64.2112 72.092 64.3666 72.369 64.5636C72.649 64.7575 72.8799 65.0067 73.0614 65.3114C73.243 65.6161 73.3338 65.9901 73.3338 66.4332C73.3338 66.9441 73.1999 67.4058 72.9322 67.8182C72.6675 68.2306 72.2797 68.5584 71.7688 68.8015C71.261 69.0446 70.6439 69.1662 69.9176 69.1662C69.2405 69.1662 68.6542 69.0569 68.1587 68.8384C67.6663 68.6199 67.2785 68.3152 66.9954 67.9244C66.7153 67.5335 66.5568 67.0795 66.5199 66.5625H67.7017C67.7325 66.9195 67.8525 67.215 68.0618 67.4489C68.2741 67.6797 68.5419 67.852 68.8651 67.9659C69.1913 68.0767 69.5421 68.1321 69.9176 68.1321C70.3546 68.1321 70.747 68.0613 71.0948 67.9197C71.4426 67.7751 71.718 67.575 71.9212 67.3196C72.1243 67.0611 72.2259 66.7595 72.2259 66.4148C72.2259 66.1009 72.1381 65.8454 71.9627 65.6484C71.7873 65.4515 71.5565 65.2914 71.2702 65.1683C70.984 65.0452 70.6747 64.9375 70.3423 64.8452L69.179 64.5128C68.4403 64.3004 67.8556 63.9973 67.4247 63.6033C66.9938 63.2094 66.7784 62.6939 66.7784 62.0568C66.7784 61.5275 66.9215 61.0658 67.2077 60.6719C67.497 60.2749 67.8848 59.9671 68.3711 59.7486C68.8604 59.527 69.4067 59.4162 70.0099 59.4162C70.6193 59.4162 71.161 59.5254 71.6349 59.744C72.1089 59.9594 72.4844 60.2549 72.7614 60.6303C73.0414 61.0058 73.1892 61.4321 73.2045 61.9091H72.0966ZM86.4804 62.5H85.3355C85.2678 62.1707 85.1493 61.8814 84.98 61.6321C84.8138 61.3828 84.6107 61.1735 84.3707 61.0043C84.1337 60.8319 83.8705 60.7027 83.5812 60.6165C83.2919 60.5303 82.9903 60.4872 82.6764 60.4872C82.104 60.4872 81.5854 60.6319 81.1206 60.9212C80.659 61.2105 80.2912 61.6367 80.0173 62.1999C79.7465 62.7631 79.6111 63.4541 79.6111 64.2727C79.6111 65.0914 79.7465 65.7823 80.0173 66.3455C80.2912 66.9087 80.659 67.335 81.1206 67.6243C81.5854 67.9136 82.104 68.0582 82.6764 68.0582C82.9903 68.0582 83.2919 68.0152 83.5812 67.929C83.8705 67.8428 84.1337 67.7151 84.3707 67.5458C84.6107 67.3735 84.8138 67.1626 84.98 66.9134C85.1493 66.661 85.2678 66.3717 85.3355 66.0455H86.4804C86.3942 66.5286 86.2372 66.9611 86.0095 67.3427C85.7818 67.7243 85.4986 68.049 85.1601 68.3168C84.8215 68.5814 84.4414 68.783 84.0198 68.9215C83.6012 69.06 83.1534 69.1293 82.6764 69.1293C81.8701 69.1293 81.153 68.9323 80.5251 68.5384C79.8973 68.1444 79.4033 67.5843 79.0432 66.858C78.6831 66.1316 78.5031 65.2699 78.5031 64.2727C78.5031 63.2756 78.6831 62.4138 79.0432 61.6875C79.4033 60.9612 79.8973 60.401 80.5251 60.0071C81.153 59.6132 81.8701 59.4162 82.6764 59.4162C83.1534 59.4162 83.6012 59.4854 84.0198 59.6239C84.4414 59.7624 84.8215 59.9656 85.1601 60.2333C85.4986 60.498 85.7818 60.8211 86.0095 61.2028C86.2372 61.5813 86.3942 62.0137 86.4804 62.5ZM96.3077 64.2727C96.3077 65.2699 96.1277 66.1316 95.7676 66.858C95.4075 67.5843 94.9135 68.1444 94.2857 68.5384C93.6578 68.9323 92.9408 69.1293 92.1344 69.1293C91.3281 69.1293 90.611 68.9323 89.9831 68.5384C89.3553 68.1444 88.8613 67.5843 88.5012 66.858C88.1412 66.1316 87.9611 65.2699 87.9611 64.2727C87.9611 63.2756 88.1412 62.4138 88.5012 61.6875C88.8613 60.9612 89.3553 60.401 89.9831 60.0071C90.611 59.6132 91.3281 59.4162 92.1344 59.4162C92.9408 59.4162 93.6578 59.6132 94.2857 60.0071C94.9135 60.401 95.4075 60.9612 95.7676 61.6875C96.1277 62.4138 96.3077 63.2756 96.3077 64.2727ZM95.1998 64.2727C95.1998 63.4541 95.0628 62.7631 94.7889 62.1999C94.5181 61.6367 94.1503 61.2105 93.6855 60.9212C93.2239 60.6319 92.7069 60.4872 92.1344 60.4872C91.562 60.4872 91.0434 60.6319 90.5787 60.9212C90.117 61.2105 89.7492 61.6367 89.4753 62.1999C89.2045 62.7631 89.0691 63.4541 89.0691 64.2727C89.0691 65.0914 89.2045 65.7823 89.4753 66.3455C89.7492 66.9087 90.117 67.335 90.5787 67.6243C91.0434 67.9136 91.562 68.0582 92.1344 68.0582C92.7069 68.0582 93.2239 67.9136 93.6855 67.6243C94.1503 67.335 94.5181 66.9087 94.7889 66.3455C95.0628 65.7823 95.1998 65.0914 95.1998 64.2727ZM101.15 69H98.2328V59.5455H101.28C102.197 59.5455 102.982 59.7347 103.634 60.1133C104.287 60.4888 104.787 61.0289 105.134 61.7337C105.482 62.4354 105.656 63.2756 105.656 64.2543C105.656 65.2391 105.481 66.087 105.13 66.7979C104.779 67.5058 104.268 68.0505 103.597 68.4322C102.926 68.8107 102.111 69 101.15 69ZM99.3777 67.9844H101.077C101.858 67.9844 102.506 67.8336 103.02 67.532C103.534 67.2304 103.917 66.801 104.17 66.244C104.422 65.6869 104.548 65.0237 104.548 64.2543C104.548 63.491 104.423 62.8339 104.174 62.283C103.925 61.729 103.552 61.3043 103.057 61.0089C102.561 60.7103 101.944 60.5611 101.206 60.5611H99.3777V67.9844ZM107.577 69V59.5455H113.282V60.5611H108.721V63.7557H112.987V64.7713H108.721V67.9844H113.356V69H107.577Z" fill="#121926" style="fill:#121926;fill:color(display-p3 0.0706 0.0980 0.1490);fill-opacity:1;"/>
<g opacity="0.3">
<rect x="232" y="48" width="95" height="32" rx="16" fill="#121926" style="fill:#121926;fill:color(display-p3 0.0706 0.0980 0.1490);fill-opacity:1;"/>
<path d="M264.53 68H262.553L265.566 59.2727H267.944L270.952 68H268.975L266.789 61.267H266.721L264.53 68ZM264.407 64.5696H269.077V66.0099H264.407V64.5696ZM271.969 70.4545V61.4545H273.758V62.554H273.839C273.919 62.3778 274.034 62.1989 274.184 62.017C274.338 61.8324 274.537 61.679 274.781 61.5568C275.028 61.4318 275.335 61.3693 275.702 61.3693C276.179 61.3693 276.619 61.4943 277.023 61.7443C277.426 61.9915 277.748 62.3651 277.99 62.8651C278.231 63.3622 278.352 63.9858 278.352 64.7358C278.352 65.4659 278.234 66.0824 277.998 66.5852C277.765 67.0852 277.447 67.4645 277.044 67.723C276.643 67.9787 276.194 68.1065 275.697 68.1065C275.345 68.1065 275.045 68.0483 274.798 67.9318C274.554 67.8153 274.354 67.669 274.197 67.4929C274.041 67.3139 273.922 67.1335 273.839 66.9517H273.784V70.4545H271.969ZM273.746 64.7273C273.746 65.1165 273.8 65.456 273.907 65.7457C274.015 66.0355 274.172 66.2614 274.376 66.4233C274.581 66.5824 274.829 66.6619 275.122 66.6619C275.417 66.6619 275.667 66.581 275.872 66.419C276.077 66.2543 276.231 66.027 276.336 65.7372C276.444 65.4446 276.498 65.108 276.498 64.7273C276.498 64.3494 276.446 64.017 276.341 63.7301C276.236 63.4432 276.081 63.2187 275.876 63.0568C275.672 62.8949 275.42 62.8139 275.122 62.8139C274.827 62.8139 274.577 62.892 274.372 63.0483C274.17 63.2045 274.015 63.4261 273.907 63.7131C273.8 64 273.746 64.3381 273.746 64.7273ZM279.562 70.4545V61.4545H281.352V62.554H281.433C281.513 62.3778 281.628 62.1989 281.778 62.017C281.932 61.8324 282.131 61.679 282.375 61.5568C282.622 61.4318 282.929 61.3693 283.295 61.3693C283.773 61.3693 284.213 61.4943 284.616 61.7443C285.02 61.9915 285.342 62.3651 285.584 62.8651C285.825 63.3622 285.946 63.9858 285.946 64.7358C285.946 65.4659 285.828 66.0824 285.592 66.5852C285.359 67.0852 285.041 67.4645 284.638 67.723C284.237 67.9787 283.788 68.1065 283.291 68.1065C282.939 68.1065 282.639 68.0483 282.392 67.9318C282.148 67.8153 281.947 67.669 281.791 67.4929C281.635 67.3139 281.515 67.1335 281.433 66.9517H281.378V70.4545H279.562ZM281.339 64.7273C281.339 65.1165 281.393 65.456 281.501 65.7457C281.609 66.0355 281.765 66.2614 281.97 66.4233C282.175 66.5824 282.423 66.6619 282.716 66.6619C283.011 66.6619 283.261 66.581 283.466 66.419C283.67 66.2543 283.825 66.027 283.93 65.7372C284.038 65.4446 284.092 65.108 284.092 64.7273C284.092 64.3494 284.04 64.017 283.934 63.7301C283.829 63.4432 283.675 63.2187 283.47 63.0568C283.265 62.8949 283.014 62.8139 282.716 62.8139C282.42 62.8139 282.17 62.892 281.966 63.0483C281.764 63.2045 281.609 63.4261 281.501 63.7131C281.393 64 281.339 64.3381 281.339 64.7273ZM288.971 59.2727V68H287.156V59.2727H288.971ZM291.546 70.4545C291.316 70.4545 291.1 70.4361 290.899 70.3991C290.7 70.3651 290.535 70.321 290.404 70.267L290.813 68.9119C291.026 68.9773 291.218 69.0128 291.389 69.0185C291.562 69.0241 291.711 68.9844 291.836 68.8991C291.964 68.8139 292.068 68.669 292.147 68.4645L292.254 68.1875L289.906 61.4545H291.815L293.17 66.2614H293.238L294.606 61.4545H296.528L293.984 68.7074C293.862 69.0597 293.695 69.3665 293.485 69.6278C293.278 69.892 293.015 70.0952 292.697 70.2372C292.379 70.3821 291.995 70.4545 291.546 70.4545Z" fill="white" style="fill:white;fill-opacity:1;"/>
</g>
<g clip-path="url(#clip1_35852_112689)">
<rect x="16" y="16" width="24" height="24" rx="12" fill="#121926" style="fill:#121926;fill:color(display-p3 0.0706 0.0980 0.1490);fill-opacity:1;"/>
<g clip-path="url(#clip2_35852_112689)">
<path d="M26 26H26.005M23 24.6L23 26.8373C23 27.0818 23 27.2041 23.0276 27.3192C23.0521 27.4213 23.0925 27.5188 23.1474 27.6083C23.2092 27.7092 23.2957 27.7957 23.4686 27.9686L27.3029 31.8029C27.897 32.397 28.194 32.694 28.5365 32.8053C28.8377 32.9031 29.1623 32.9031 29.4635 32.8053C29.806 32.694 30.103 32.397 30.6971 31.8029L31.8029 30.6971C32.397 30.103 32.694 29.806 32.8053 29.4635C32.9031 29.1623 32.9031 28.8377 32.8053 28.5365C32.694 28.194 32.397 27.897 31.8029 27.3029L27.9686 23.4686C27.7957 23.2957 27.7092 23.2092 27.6083 23.1474C27.5188 23.0925 27.4213 23.0521 27.3192 23.0276C27.2041 23 27.0818 23 26.8373 23L24.6 23C24.0399 23 23.7599 23 23.546 23.109C23.3578 23.2049 23.2049 23.3578 23.109 23.546C23 23.7599 23 24.0399 23 24.6ZM26.25 26C26.25 26.1381 26.1381 26.25 26 26.25C25.8619 26.25 25.75 26.1381 25.75 26C25.75 25.8619 25.8619 25.75 26 25.75C26.1381 25.75 26.25 25.8619 26.25 26Z" stroke="white" style="stroke:white;stroke-opacity:1;" stroke-width="0.979592" stroke-linecap="round" stroke-linejoin="round"/>
</g>
</g>
<path d="M48.8217 33V23.5455H52.6072C53.3028 23.5455 53.8829 23.6486 54.3477 23.8548C54.8124 24.061 55.1617 24.3472 55.3956 24.7134C55.6295 25.0766 55.7464 25.4951 55.7464 25.9691C55.7464 26.3384 55.6726 26.6631 55.5249 26.9432C55.3771 27.2202 55.174 27.4479 54.9155 27.6264C54.66 27.8018 54.3677 27.9265 54.0384 28.0004V28.0927C54.3984 28.1081 54.7354 28.2096 55.0494 28.3974C55.3664 28.5851 55.6233 28.8482 55.8203 29.1868C56.0173 29.5223 56.1158 29.9223 56.1158 30.3871C56.1158 30.8887 55.9911 31.3365 55.7418 31.7305C55.4956 32.1213 55.1309 32.4306 54.6477 32.6584C54.1645 32.8861 53.569 33 52.8612 33H48.8217ZM50.8207 31.3658H52.4503C53.0073 31.3658 53.4136 31.2596 53.669 31.0472C53.9245 30.8318 54.0522 30.5456 54.0522 30.1886C54.0522 29.927 53.9891 29.6961 53.8629 29.4961C53.7367 29.296 53.5567 29.1391 53.3228 29.0252C53.092 28.9113 52.8165 28.8544 52.4964 28.8544H50.8207V31.3658ZM50.8207 27.5018H52.3026C52.5765 27.5018 52.8196 27.4541 53.032 27.3587C53.2474 27.2602 53.4167 27.1217 53.5398 26.9432C53.666 26.7647 53.729 26.5508 53.729 26.3015C53.729 25.9599 53.6075 25.6844 53.3643 25.4751C53.1243 25.2659 52.7827 25.1612 52.3395 25.1612H50.8207V27.5018ZM60.5834 33.1385C59.8663 33.1385 59.2461 32.9862 58.7229 32.6815C58.2028 32.3737 57.8012 31.9459 57.518 31.3981C57.2349 30.8472 57.0933 30.2086 57.0933 29.4822C57.0933 28.7498 57.2349 28.1096 57.518 27.5618C57.8012 27.0109 58.2028 26.5831 58.7229 26.2784C59.2461 25.9706 59.8663 25.8168 60.5834 25.8168C61.3005 25.8168 61.9191 25.9706 62.4392 26.2784C62.9624 26.5831 63.3656 27.0109 63.6487 27.5618C63.9318 28.1096 64.0734 28.7498 64.0734 29.4822C64.0734 30.2086 63.9318 30.8472 63.6487 31.3981C63.3656 31.9459 62.9624 32.3737 62.4392 32.6815C61.9191 32.9862 61.3005 33.1385 60.5834 33.1385ZM60.5926 31.6151C60.9188 31.6151 61.1912 31.5227 61.4097 31.3381C61.6282 31.1503 61.7929 30.8949 61.9037 30.5717C62.0175 30.2486 62.0745 29.8808 62.0745 29.4684C62.0745 29.056 62.0175 28.6882 61.9037 28.3651C61.7929 28.0419 61.6282 27.7865 61.4097 27.5987C61.1912 27.411 60.9188 27.3171 60.5926 27.3171C60.2633 27.3171 59.9863 27.411 59.7616 27.5987C59.54 27.7865 59.3723 28.0419 59.2584 28.3651C59.1476 28.6882 59.0922 29.056 59.0922 29.4684C59.0922 29.8808 59.1476 30.2486 59.2584 30.5717C59.3723 30.8949 59.54 31.1503 59.7616 31.3381C59.9863 31.5227 60.2633 31.6151 60.5926 31.6151ZM67.3188 28.9006V33H65.3522V25.9091H67.2265V27.1602H67.3096C67.4665 26.7478 67.7297 26.4215 68.099 26.1815C68.4683 25.9383 68.9161 25.8168 69.4424 25.8168C69.9348 25.8168 70.3641 25.9245 70.7304 26.1399C71.0966 26.3554 71.3813 26.6631 71.5844 27.0632C71.7876 27.4602 71.8891 27.9342 71.8891 28.4851V33H69.9225V28.8359C69.9256 28.402 69.8148 28.0634 69.5901 27.8203C69.3654 27.5741 69.0561 27.451 68.6622 27.451C68.3975 27.451 68.1636 27.5079 67.9605 27.6218C67.7604 27.7357 67.6035 27.9019 67.4896 28.1204C67.3788 28.3358 67.3219 28.5959 67.3188 28.9006ZM77.9863 29.9808V25.9091H79.9529V33H78.0648V31.712H77.9909C77.8309 32.1275 77.5647 32.4614 77.1923 32.7138C76.823 32.9661 76.3721 33.0923 75.8397 33.0923C75.3657 33.0923 74.9487 32.9846 74.5886 32.7692C74.2285 32.5537 73.9469 32.2475 73.7438 31.8505C73.5437 31.4535 73.4422 30.978 73.4391 30.424V25.9091H75.4057V30.0732C75.4088 30.4917 75.5211 30.8226 75.7427 31.0657C75.9643 31.3088 76.2613 31.4304 76.6337 31.4304C76.8707 31.4304 77.0923 31.3765 77.2985 31.2688C77.5047 31.158 77.6709 30.9949 77.7971 30.7795C77.9263 30.564 77.9894 30.2978 77.9863 29.9808ZM87.4259 27.9311L85.6254 28.0419C85.5947 27.888 85.5285 27.7495 85.4269 27.6264C85.3254 27.5002 85.1915 27.4002 85.0253 27.3263C84.8622 27.2494 84.6668 27.2109 84.439 27.2109C84.1343 27.2109 83.8773 27.2756 83.6681 27.4048C83.4588 27.531 83.3541 27.7003 83.3541 27.9126C83.3541 28.0819 83.4218 28.225 83.5573 28.342C83.6927 28.4589 83.925 28.5528 84.2544 28.6236L85.5377 28.8821C86.2271 29.0237 86.7411 29.2514 87.0796 29.5653C87.4182 29.8793 87.5874 30.2917 87.5874 30.8026C87.5874 31.2673 87.4505 31.6751 87.1766 32.0259C86.9057 32.3768 86.5334 32.6507 86.0594 32.8477C85.5885 33.0415 85.0453 33.1385 84.4298 33.1385C83.4911 33.1385 82.7432 32.9431 82.1862 32.5522C81.6322 32.1583 81.3075 31.6228 81.2121 30.9457L83.1464 30.8441C83.2049 31.1303 83.3464 31.3488 83.5711 31.4996C83.7958 31.6474 84.0835 31.7212 84.4344 31.7212C84.7791 31.7212 85.0561 31.6551 85.2654 31.5227C85.4777 31.3873 85.5854 31.2134 85.5885 31.0011C85.5854 30.8226 85.51 30.6764 85.3623 30.5625C85.2146 30.4455 84.9868 30.3563 84.6791 30.2947L83.4511 30.0501C82.7586 29.9116 82.2431 29.6715 81.9046 29.3299C81.5691 28.9883 81.4014 28.5528 81.4014 28.0234C81.4014 27.5679 81.5245 27.1755 81.7707 26.8462C82.02 26.5169 82.3693 26.263 82.8186 26.0845C83.271 25.906 83.8004 25.8168 84.4067 25.8168C85.3023 25.8168 86.0071 26.006 86.521 26.3846C87.0381 26.7631 87.3397 27.2786 87.4259 27.9311ZM95.0384 33.1385C94.3121 33.1385 93.6874 32.9846 93.1642 32.6768C92.644 32.366 92.2439 31.9351 91.9639 31.3842C91.6869 30.8333 91.5484 30.1993 91.5484 29.4822C91.5484 28.7559 91.6884 28.1188 91.9685 27.571C92.2516 27.0201 92.6533 26.5908 93.1734 26.283C93.6935 25.9722 94.3121 25.8168 95.0292 25.8168C95.6478 25.8168 96.1895 25.9291 96.6542 26.1538C97.1189 26.3784 97.4867 26.6939 97.7575 27.1001C98.0284 27.5064 98.1776 27.9834 98.2053 28.5312H96.3495C96.2972 28.1773 96.1587 27.8926 95.934 27.6772C95.7124 27.4587 95.4216 27.3494 95.0615 27.3494C94.7568 27.3494 94.4906 27.4325 94.2629 27.5987C94.0382 27.7618 93.8628 28.0004 93.7366 28.3143C93.6104 28.6282 93.5473 29.0083 93.5473 29.4545C93.5473 29.907 93.6089 30.2917 93.732 30.6087C93.8582 30.9257 94.0351 31.1673 94.2629 31.3335C94.4906 31.4996 94.7568 31.5827 95.0615 31.5827C95.2862 31.5827 95.4878 31.5366 95.6663 31.4442C95.8479 31.3519 95.9971 31.218 96.1141 31.0426C96.2341 30.8641 96.3126 30.6502 96.3495 30.4009H98.2053C98.1746 30.9426 98.0268 31.4196 97.7622 31.832C97.5006 32.2414 97.1389 32.5614 96.6773 32.7923C96.2156 33.0231 95.6694 33.1385 95.0384 33.1385ZM102.668 33.1385C101.951 33.1385 101.331 32.9862 100.808 32.6815C100.288 32.3737 99.8861 31.9459 99.603 31.3981C99.3198 30.8472 99.1783 30.2086 99.1783 29.4822C99.1783 28.7498 99.3198 28.1096 99.603 27.5618C99.8861 27.0109 100.288 26.5831 100.808 26.2784C101.331 25.9706 101.951 25.8168 102.668 25.8168C103.385 25.8168 104.004 25.9706 104.524 26.2784C105.047 26.5831 105.451 27.0109 105.734 27.5618C106.017 28.1096 106.158 28.7498 106.158 29.4822C106.158 30.2086 106.017 30.8472 105.734 31.3981C105.451 31.9459 105.047 32.3737 104.524 32.6815C104.004 32.9862 103.385 33.1385 102.668 33.1385ZM102.678 31.6151C103.004 31.6151 103.276 31.5227 103.495 31.3381C103.713 31.1503 103.878 30.8949 103.989 30.5717C104.103 30.2486 104.159 29.8808 104.159 29.4684C104.159 29.056 104.103 28.6882 103.989 28.3651C103.878 28.0419 103.713 27.7865 103.495 27.5987C103.276 27.411 103.004 27.3171 102.678 27.3171C102.348 27.3171 102.071 27.411 101.847 27.5987C101.625 27.7865 101.457 28.0419 101.343 28.3651C101.233 28.6882 101.177 29.056 101.177 29.4684C101.177 29.8808 101.233 30.2486 101.343 30.5717C101.457 30.8949 101.625 31.1503 101.847 31.3381C102.071 31.5227 102.348 31.6151 102.678 31.6151ZM110.05 33.1154C109.511 33.1154 109.024 32.9769 108.587 32.6999C108.153 32.4199 107.808 32.009 107.553 31.4673C107.3 30.9226 107.174 30.2547 107.174 29.4638C107.174 28.6513 107.305 27.9757 107.566 27.4371C107.828 26.8955 108.176 26.4908 108.61 26.223C109.047 25.9522 109.525 25.8168 110.045 25.8168C110.442 25.8168 110.773 25.8845 111.038 26.0199C111.306 26.1522 111.521 26.3184 111.684 26.5185C111.85 26.7154 111.977 26.9093 112.063 27.1001H112.123V23.5455H114.085V33H112.146V31.8643H112.063C111.971 32.0613 111.84 32.2567 111.67 32.4506C111.504 32.6415 111.287 32.8 111.02 32.9261C110.755 33.0523 110.432 33.1154 110.05 33.1154ZM110.673 31.5504C110.99 31.5504 111.258 31.4643 111.477 31.2919C111.698 31.1165 111.867 30.8718 111.984 30.5579C112.104 30.244 112.164 29.8762 112.164 29.4545C112.164 29.0329 112.106 28.6667 111.989 28.3558C111.872 28.045 111.703 27.8049 111.481 27.6357C111.26 27.4664 110.99 27.3817 110.673 27.3817C110.35 27.3817 110.078 27.4695 109.856 27.6449C109.635 27.8203 109.467 28.0634 109.353 28.3743C109.239 28.6851 109.182 29.0452 109.182 29.4545C109.182 29.867 109.239 30.2317 109.353 30.5487C109.47 30.8626 109.638 31.1088 109.856 31.2873C110.078 31.4627 110.35 31.5504 110.673 31.5504ZM118.933 33.1385C118.204 33.1385 117.576 32.9908 117.05 32.6953C116.527 32.3968 116.123 31.9751 115.84 31.4304C115.557 30.8826 115.416 30.2347 115.416 29.4869C115.416 28.7575 115.557 28.1173 115.84 27.5664C116.123 27.0155 116.522 26.5862 117.036 26.2784C117.553 25.9706 118.159 25.8168 118.855 25.8168C119.323 25.8168 119.758 25.8922 120.161 26.043C120.568 26.1907 120.921 26.4138 121.223 26.7124C121.528 27.0109 121.765 27.3864 121.934 27.8388C122.103 28.2881 122.188 28.8144 122.188 29.4176V29.9577H116.2V28.739H120.337C120.337 28.4558 120.275 28.205 120.152 27.9865C120.029 27.768 119.858 27.5972 119.64 27.4741C119.424 27.3479 119.173 27.2848 118.887 27.2848C118.589 27.2848 118.324 27.354 118.093 27.4925C117.865 27.628 117.687 27.8111 117.558 28.0419C117.428 28.2696 117.362 28.5236 117.359 28.8036V29.9624C117.359 30.3132 117.424 30.6164 117.553 30.8718C117.685 31.1272 117.872 31.3242 118.112 31.4627C118.352 31.6012 118.636 31.6705 118.966 31.6705C119.184 31.6705 119.384 31.6397 119.566 31.5781C119.747 31.5166 119.903 31.4242 120.032 31.3011C120.161 31.178 120.26 31.0272 120.328 30.8487L122.146 30.9688C122.054 31.4058 121.865 31.7874 121.579 32.1136C121.295 32.4368 120.929 32.6892 120.48 32.8707C120.034 33.0492 119.518 33.1385 118.933 33.1385Z" fill="#121926" style="fill:#121926;fill:color(display-p3 0.0706 0.0980 0.1490);fill-opacity:1;"/>
<path d="M16.6321 96V88.7273H19.544C20.0791 88.7273 20.5253 88.8066 20.8828 88.9652C21.2403 89.1238 21.509 89.344 21.6889 89.6257C21.8688 89.9051 21.9588 90.227 21.9588 90.5916C21.9588 90.8757 21.902 91.1255 21.7884 91.3409C21.6747 91.554 21.5185 91.7292 21.3196 91.8665C21.1231 92.0014 20.8982 92.0973 20.6449 92.1541V92.2251C20.9219 92.237 21.1811 92.3151 21.4226 92.4595C21.6664 92.6039 21.8641 92.8063 22.0156 93.0668C22.1671 93.3248 22.2429 93.6326 22.2429 93.9901C22.2429 94.3759 22.147 94.7204 21.9553 95.0234C21.7659 95.3241 21.4853 95.562 21.1136 95.7372C20.742 95.9124 20.2839 96 19.7393 96H16.6321ZM18.1697 94.7429H19.4233C19.8518 94.7429 20.1643 94.6612 20.3608 94.4979C20.5573 94.3321 20.6555 94.112 20.6555 93.8374C20.6555 93.6361 20.607 93.4586 20.5099 93.3047C20.4129 93.1508 20.2744 93.0301 20.0945 92.9425C19.9169 92.8549 19.705 92.8111 19.4588 92.8111H18.1697V94.7429ZM18.1697 91.7706H19.3097C19.5204 91.7706 19.7074 91.7339 19.8707 91.6605C20.0365 91.5848 20.1667 91.4782 20.2614 91.3409C20.3584 91.2036 20.407 91.0391 20.407 90.8473C20.407 90.5845 20.3134 90.3726 20.1264 90.2116C19.9418 90.0507 19.679 89.9702 19.3381 89.9702H18.1697V91.7706ZM25.5795 96.1065C25.0279 96.1065 24.5509 95.9893 24.1484 95.755C23.7483 95.5182 23.4394 95.1892 23.2216 94.7678C23.0038 94.344 22.8949 93.8527 22.8949 93.294C22.8949 92.7306 23.0038 92.2382 23.2216 91.8168C23.4394 91.393 23.7483 91.0639 24.1484 90.8295C24.5509 90.5928 25.0279 90.4744 25.5795 90.4744C26.1311 90.4744 26.607 90.5928 27.0071 90.8295C27.4095 91.0639 27.7197 91.393 27.9375 91.8168C28.1553 92.2382 28.2642 92.7306 28.2642 93.294C28.2642 93.8527 28.1553 94.344 27.9375 94.7678C27.7197 95.1892 27.4095 95.5182 27.0071 95.755C26.607 95.9893 26.1311 96.1065 25.5795 96.1065ZM25.5866 94.9347C25.8376 94.9347 26.0471 94.8636 26.2152 94.7216C26.3833 94.5772 26.5099 94.3807 26.5951 94.1321C26.6827 93.8835 26.7265 93.6006 26.7265 93.2834C26.7265 92.9661 26.6827 92.6832 26.5951 92.4347C26.5099 92.1861 26.3833 91.9896 26.2152 91.8452C26.0471 91.7008 25.8376 91.6286 25.5866 91.6286C25.3333 91.6286 25.1202 91.7008 24.9474 91.8452C24.777 91.9896 24.6479 92.1861 24.5603 92.4347C24.4751 92.6832 24.4325 92.9661 24.4325 93.2834C24.4325 93.6006 24.4751 93.8835 24.5603 94.1321C24.6479 94.3807 24.777 94.5772 24.9474 94.7216C25.1202 94.8636 25.3333 94.9347 25.5866 94.9347ZM30.6606 92.8466V96H29.1478V90.5455H30.5896V91.5078H30.6535C30.7743 91.1906 30.9767 90.9396 31.2608 90.755C31.5449 90.5679 31.8893 90.4744 32.2941 90.4744C32.6729 90.4744 33.0032 90.5573 33.2849 90.723C33.5666 90.8887 33.7856 91.1255 33.9419 91.4332C34.0981 91.7386 34.1762 92.1032 34.1762 92.527V96H32.6635V92.7969C32.6658 92.4631 32.5806 92.2027 32.4078 92.0156C32.235 91.8262 31.997 91.7315 31.694 91.7315C31.4904 91.7315 31.3105 91.7753 31.1542 91.8629C31.0003 91.9505 30.8796 92.0784 30.792 92.2464C30.7068 92.4122 30.663 92.6122 30.6606 92.8466ZM38.7664 93.6776V90.5455H40.2792V96H38.8268V95.0092H38.77C38.6469 95.3288 38.4421 95.5857 38.1556 95.7798C37.8715 95.974 37.5247 96.071 37.1151 96.071C36.7505 96.071 36.4298 95.9882 36.1528 95.8224C35.8758 95.6567 35.6592 95.4212 35.5029 95.1158C35.349 94.8104 35.2709 94.4446 35.2685 94.0185V90.5455H36.7813V93.7486C36.7837 94.0705 36.8701 94.325 37.0406 94.5121C37.211 94.6991 37.4395 94.7926 37.7259 94.7926C37.9082 94.7926 38.0787 94.7512 38.2373 94.6683C38.3959 94.5831 38.5237 94.4576 38.6208 94.2919C38.7202 94.1262 38.7688 93.9214 38.7664 93.6776ZM45.9276 92.1009L44.5426 92.1861C44.519 92.0677 44.4681 91.9612 44.39 91.8665C44.3118 91.7694 44.2088 91.6925 44.081 91.6357C43.9555 91.5765 43.8052 91.5469 43.63 91.5469C43.3956 91.5469 43.198 91.5966 43.037 91.696C42.876 91.7931 42.7955 91.9233 42.7955 92.0866C42.7955 92.2169 42.8476 92.3269 42.9517 92.4169C43.0559 92.5069 43.2346 92.5791 43.488 92.6335L44.4752 92.8324C45.0055 92.9413 45.4008 93.1165 45.6613 93.358C45.9217 93.5994 46.0519 93.9167 46.0519 94.3097C46.0519 94.6671 45.9465 94.9808 45.7358 95.2507C45.5275 95.5206 45.241 95.7313 44.8765 95.8828C44.5142 96.032 44.0964 96.1065 43.6229 96.1065C42.9008 96.1065 42.3256 95.9562 41.8971 95.6555C41.4709 95.3525 41.2212 94.9406 41.1478 94.4197L42.6357 94.3416C42.6807 94.5618 42.7896 94.7299 42.9624 94.8459C43.1352 94.9595 43.3566 95.0163 43.6265 95.0163C43.8916 95.0163 44.1047 94.9654 44.2657 94.8636C44.429 94.7595 44.5119 94.6257 44.5142 94.4624C44.5119 94.325 44.4539 94.2126 44.3402 94.125C44.2266 94.035 44.0514 93.9664 43.8147 93.919L42.8701 93.7308C42.3374 93.6243 41.9409 93.4396 41.6804 93.1768C41.4224 92.9141 41.2934 92.5791 41.2934 92.1719C41.2934 91.8215 41.3881 91.5196 41.5775 91.2663C41.7692 91.013 42.0379 90.8177 42.3836 90.6804C42.7316 90.5431 43.1388 90.4744 43.6051 90.4744C44.2941 90.4744 44.8362 90.62 45.2316 90.9112C45.6293 91.2024 45.8613 91.599 45.9276 92.1009ZM51.5834 96.1065C51.0247 96.1065 50.5441 95.9882 50.1417 95.7514C49.7416 95.5123 49.4338 95.1809 49.2184 94.7571C49.0053 94.3333 48.8988 93.8456 48.8988 93.294C48.8988 92.7353 49.0065 92.2453 49.2219 91.8239C49.4397 91.4001 49.7487 91.0698 50.1488 90.8331C50.5489 90.594 51.0247 90.4744 51.5763 90.4744C52.0522 90.4744 52.4688 90.5608 52.8263 90.7337C53.1838 90.9065 53.4667 91.1491 53.675 91.4616C53.8834 91.7741 53.9982 92.1411 54.0195 92.5625H52.5919C52.5517 92.2902 52.4452 92.0713 52.2723 91.9055C52.1019 91.7375 51.8782 91.6534 51.6012 91.6534C51.3668 91.6534 51.162 91.7173 50.9868 91.8452C50.814 91.9706 50.6791 92.1541 50.582 92.3956C50.4849 92.6371 50.4364 92.9295 50.4364 93.2727C50.4364 93.6207 50.4837 93.9167 50.5784 94.1605C50.6755 94.4044 50.8116 94.5902 50.9868 94.718C51.162 94.8459 51.3668 94.9098 51.6012 94.9098C51.774 94.9098 51.9291 94.8743 52.0664 94.8033C52.2061 94.7322 52.3209 94.6293 52.4108 94.4943C52.5032 94.357 52.5635 94.1925 52.5919 94.0007H54.0195C53.9958 94.4174 53.8822 94.7843 53.6786 95.1016C53.4774 95.4164 53.1992 95.6626 52.8441 95.8402C52.489 96.0178 52.0687 96.1065 51.5834 96.1065ZM57.3526 96.1065C56.8009 96.1065 56.3239 95.9893 55.9214 95.755C55.5214 95.5182 55.2124 95.1892 54.9946 94.7678C54.7768 94.344 54.6679 93.8527 54.6679 93.294C54.6679 92.7306 54.7768 92.2382 54.9946 91.8168C55.2124 91.393 55.5214 91.0639 55.9214 90.8295C56.3239 90.5928 56.8009 90.4744 57.3526 90.4744C57.9042 90.4744 58.38 90.5928 58.7801 90.8295C59.1826 91.0639 59.4927 91.393 59.7105 91.8168C59.9283 92.2382 60.0372 92.7306 60.0372 93.294C60.0372 93.8527 59.9283 94.344 59.7105 94.7678C59.4927 95.1892 59.1826 95.5182 58.7801 95.755C58.38 95.9893 57.9042 96.1065 57.3526 96.1065ZM57.3597 94.9347C57.6106 94.9347 57.8201 94.8636 57.9882 94.7216C58.1563 94.5772 58.283 94.3807 58.3682 94.1321C58.4558 93.8835 58.4996 93.6006 58.4996 93.2834C58.4996 92.9661 58.4558 92.6832 58.3682 92.4347C58.283 92.1861 58.1563 91.9896 57.9882 91.8452C57.8201 91.7008 57.6106 91.6286 57.3597 91.6286C57.1063 91.6286 56.8933 91.7008 56.7205 91.8452C56.55 91.9896 56.421 92.1861 56.3334 92.4347C56.2482 92.6832 56.2055 92.9661 56.2055 93.2834C56.2055 93.6006 56.2482 93.8835 56.3334 94.1321C56.421 94.3807 56.55 94.5772 56.7205 94.7216C56.8933 94.8636 57.1063 94.9347 57.3597 94.9347ZM62.9308 96.0888C62.5165 96.0888 62.1413 95.9822 61.8051 95.7692C61.4713 95.5537 61.2062 95.2377 61.0097 94.821C60.8155 94.402 60.7185 93.8883 60.7185 93.2798C60.7185 92.6548 60.8191 92.1352 61.0203 91.7209C61.2215 91.3042 61.4891 90.9929 61.8229 90.7869C62.159 90.5786 62.5272 90.4744 62.9273 90.4744C63.2327 90.4744 63.4872 90.5265 63.6908 90.6307C63.8967 90.7325 64.0625 90.8603 64.1879 91.0142C64.3158 91.1657 64.4128 91.3149 64.4791 91.4616H64.5253V88.7273H66.0345V96H64.543V95.1264H64.4791C64.4081 95.2779 64.3075 95.4283 64.1773 95.5774C64.0494 95.7242 63.8825 95.8461 63.6766 95.9432C63.473 96.0402 63.2244 96.0888 62.9308 96.0888ZM63.4102 94.8849C63.6541 94.8849 63.86 94.8187 64.0281 94.6861C64.1986 94.5511 64.3288 94.3629 64.4188 94.1214C64.5111 93.88 64.5572 93.5971 64.5572 93.2727C64.5572 92.9484 64.5123 92.6667 64.4223 92.4276C64.3323 92.1884 64.2021 92.0038 64.0317 91.8736C63.8612 91.7434 63.6541 91.6783 63.4102 91.6783C63.1616 91.6783 62.9521 91.7457 62.7817 91.8807C62.6112 92.0156 62.4822 92.2027 62.3946 92.4418C62.307 92.6809 62.2632 92.9579 62.2632 93.2727C62.2632 93.59 62.307 93.8705 62.3946 94.1143C62.4846 94.3558 62.6136 94.5452 62.7817 94.6825C62.9521 94.8175 63.1616 94.8849 63.4102 94.8849ZM69.6641 96.1065C69.103 96.1065 68.6201 95.9929 68.2152 95.7656C67.8128 95.536 67.5026 95.2116 67.2848 94.7926C67.067 94.3712 66.9581 93.8729 66.9581 93.2976C66.9581 92.7365 67.067 92.2441 67.2848 91.8203C67.5026 91.3965 67.8092 91.0663 68.2046 90.8295C68.6023 90.5928 69.0687 90.4744 69.6037 90.4744C69.9636 90.4744 70.2986 90.5324 70.6087 90.6484C70.9212 90.7621 71.1935 90.9337 71.4255 91.1634C71.6598 91.393 71.8421 91.6818 71.9723 92.0298C72.1025 92.3755 72.1676 92.7803 72.1676 93.2443V93.6598H67.5618V92.7223H70.7436C70.7436 92.5045 70.6963 92.3116 70.6016 92.1435C70.5069 91.9754 70.3755 91.844 70.2074 91.7493C70.0417 91.6522 69.8488 91.6037 69.6286 91.6037C69.3989 91.6037 69.1953 91.657 69.0178 91.7635C68.8426 91.8677 68.7053 92.0085 68.6059 92.1861C68.5064 92.3613 68.4555 92.5566 68.4532 92.772V93.6634C68.4532 93.9332 68.5029 94.1664 68.6023 94.3629C68.7041 94.5594 68.8473 94.7109 69.032 94.8175C69.2167 94.924 69.4356 94.9773 69.689 94.9773C69.857 94.9773 70.0109 94.9536 70.1506 94.9062C70.2903 94.8589 70.4098 94.7879 70.5093 94.6932C70.6087 94.5985 70.6845 94.4825 70.7365 94.3452L72.1357 94.4375C72.0647 94.7737 71.9191 95.0672 71.6989 95.3182C71.4811 95.5668 71.1994 95.7609 70.8537 95.9006C70.5105 96.0379 70.1139 96.1065 69.6641 96.1065ZM76.8247 96.103C76.4767 96.103 76.1666 96.0426 75.8943 95.9219C75.6221 95.7988 75.4066 95.6177 75.248 95.3786C75.0918 95.1371 75.0136 94.8364 75.0136 94.4766C75.0136 94.1735 75.0693 93.919 75.1805 93.7131C75.2918 93.5071 75.4433 93.3414 75.6351 93.2159C75.8268 93.0904 76.0447 92.9957 76.2885 92.9318C76.5347 92.8679 76.7928 92.8229 77.0626 92.7969C77.3799 92.7637 77.6356 92.733 77.8297 92.7045C78.0238 92.6738 78.1647 92.6288 78.2523 92.5696C78.3399 92.5104 78.3837 92.4228 78.3837 92.3068V92.2855C78.3837 92.0606 78.3126 91.8866 78.1706 91.7635C78.0309 91.6404 77.8321 91.5788 77.574 91.5788C77.3018 91.5788 77.0851 91.6392 76.9241 91.7599C76.7632 91.8783 76.6566 92.0275 76.6045 92.2074L75.2054 92.0938C75.2764 91.7623 75.4161 91.4759 75.6244 91.2344C75.8328 90.9905 76.1015 90.8035 76.4305 90.6733C76.762 90.5407 77.1455 90.4744 77.5811 90.4744C77.8841 90.4744 78.1741 90.5099 78.4511 90.581C78.7305 90.652 78.9779 90.7621 79.1933 90.9112C79.4111 91.0604 79.5828 91.2521 79.7082 91.4865C79.8337 91.7185 79.8965 91.9967 79.8965 92.321V96H78.4618V95.2436H78.4192C78.3316 95.4141 78.2144 95.5644 78.0676 95.6946C77.9208 95.8224 77.7445 95.9231 77.5385 95.9964C77.3325 96.0675 77.0946 96.103 76.8247 96.103ZM77.258 95.0589C77.4805 95.0589 77.677 95.0152 77.8474 94.9276C78.0179 94.8376 78.1517 94.7169 78.2487 94.5653C78.3458 94.4138 78.3943 94.2422 78.3943 94.0504V93.4716C78.347 93.5024 78.2819 93.5308 78.199 93.5568C78.1185 93.5805 78.0274 93.603 77.9256 93.6243C77.8238 93.6432 77.722 93.661 77.6202 93.6776C77.5184 93.6918 77.426 93.7048 77.3432 93.7166C77.1656 93.7427 77.0106 93.7841 76.878 93.8409C76.7454 93.8977 76.6424 93.9747 76.569 94.0717C76.4956 94.1664 76.459 94.2848 76.459 94.4268C76.459 94.6328 76.5335 94.7902 76.6827 94.8991C76.8342 95.0057 77.0259 95.0589 77.258 95.0589ZM80.9701 98.0455V90.5455H82.4616V91.4616H82.5291C82.5953 91.3149 82.6912 91.1657 82.8167 91.0142C82.9445 90.8603 83.1103 90.7325 83.3139 90.6307C83.5198 90.5265 83.7755 90.4744 84.0809 90.4744C84.4786 90.4744 84.8456 90.5786 85.1818 90.7869C85.5179 90.9929 85.7866 91.3042 85.9879 91.7209C86.1891 92.1352 86.2897 92.6548 86.2897 93.2798C86.2897 93.8883 86.1915 94.402 85.995 94.821C85.8008 95.2377 85.5357 95.5537 85.1995 95.7692C84.8657 95.9822 84.4916 96.0888 84.0773 96.0888C83.7838 96.0888 83.534 96.0402 83.3281 95.9432C83.1245 95.8461 82.9576 95.7242 82.8273 95.5774C82.6971 95.4283 82.5977 95.2779 82.5291 95.1264H82.4829V98.0455H80.9701ZM82.4509 93.2727C82.4509 93.5971 82.4959 93.88 82.5859 94.1214C82.6758 94.3629 82.806 94.5511 82.9765 94.6861C83.1469 94.8187 83.3541 94.8849 83.5979 94.8849C83.8442 94.8849 84.0525 94.8175 84.2229 94.6825C84.3934 94.5452 84.5224 94.3558 84.61 94.1143C84.7 93.8705 84.745 93.59 84.745 93.2727C84.745 92.9579 84.7012 92.6809 84.6136 92.4418C84.526 92.2027 84.3969 92.0156 84.2265 91.8807C84.056 91.7457 83.8465 91.6783 83.5979 91.6783C83.3517 91.6783 83.1434 91.7434 82.9729 91.8736C82.8049 92.0038 82.6758 92.1884 82.5859 92.4276C82.4959 92.6667 82.4509 92.9484 82.4509 93.2727ZM87.1982 98.0455V90.5455H88.6897V91.4616H88.7572C88.8235 91.3149 88.9193 91.1657 89.0448 91.0142C89.1727 90.8603 89.3384 90.7325 89.542 90.6307C89.7479 90.5265 90.0036 90.4744 90.309 90.4744C90.7067 90.4744 91.0737 90.5786 91.4099 90.7869C91.746 90.9929 92.0147 91.3042 92.216 91.7209C92.4172 92.1352 92.5178 92.6548 92.5178 93.2798C92.5178 93.8883 92.4196 94.402 92.2231 94.821C92.029 95.2377 91.7638 95.5537 91.4276 95.7692C91.0938 95.9822 90.7198 96.0888 90.3055 96.0888C90.0119 96.0888 89.7621 96.0402 89.5562 95.9432C89.3526 95.8461 89.1857 95.7242 89.0555 95.5774C88.9253 95.4283 88.8258 95.2779 88.7572 95.1264H88.711V98.0455H87.1982ZM88.679 93.2727C88.679 93.5971 88.724 93.88 88.814 94.1214C88.904 94.3629 89.0342 94.5511 89.2046 94.6861C89.3751 94.8187 89.5822 94.8849 89.8261 94.8849C90.0723 94.8849 90.2806 94.8175 90.4511 94.6825C90.6215 94.5452 90.7505 94.3558 90.8381 94.1143C90.9281 93.8705 90.9731 93.59 90.9731 93.2727C90.9731 92.9579 90.9293 92.6809 90.8417 92.4418C90.7541 92.2027 90.6251 92.0156 90.4546 91.8807C90.2842 91.7457 90.0746 91.6783 89.8261 91.6783C89.5799 91.6783 89.3715 91.7434 89.2011 91.8736C89.033 92.0038 88.904 92.1884 88.814 92.4276C88.724 92.6667 88.679 92.9484 88.679 93.2727ZM94.9391 88.7273V96H93.4263V88.7273H94.9391ZM96.051 96V90.5455H97.5637V96H96.051ZM96.8109 89.8423C96.586 89.8423 96.3931 89.7678 96.2321 89.6186C96.0734 89.4671 95.9941 89.286 95.9941 89.0753C95.9941 88.867 96.0734 88.6882 96.2321 88.5391C96.3931 88.3875 96.586 88.3118 96.8109 88.3118C97.0358 88.3118 97.2276 88.3875 97.3862 88.5391C97.5472 88.6882 97.6277 88.867 97.6277 89.0753C97.6277 89.286 97.5472 89.4671 97.3862 89.6186C97.2276 89.7678 97.0358 89.8423 96.8109 89.8423ZM101.161 96.1065C100.6 96.1065 100.117 95.9929 99.7125 95.7656C99.31 95.536 98.9999 95.2116 98.7821 94.7926C98.5643 94.3712 98.4554 93.8729 98.4554 93.2976C98.4554 92.7365 98.5643 92.2441 98.7821 91.8203C98.9999 91.3965 99.3065 91.0663 99.7018 90.8295C100.1 90.5928 100.566 90.4744 101.101 90.4744C101.461 90.4744 101.796 90.5324 102.106 90.6484C102.418 90.7621 102.691 90.9337 102.923 91.1634C103.157 91.393 103.339 91.6818 103.47 92.0298C103.6 92.3755 103.665 92.7803 103.665 93.2443V93.6598H99.0591V92.7223H102.241C102.241 92.5045 102.194 92.3116 102.099 92.1435C102.004 91.9754 101.873 91.844 101.705 91.7493C101.539 91.6522 101.346 91.6037 101.126 91.6037C100.896 91.6037 100.693 91.657 100.515 91.7635C100.34 91.8677 100.203 92.0085 100.103 92.1861C100.004 92.3613 99.9528 92.5566 99.9504 92.772V93.6634C99.9504 93.9332 100 94.1664 100.1 94.3629C100.201 94.5594 100.345 94.7109 100.529 94.8175C100.714 94.924 100.933 94.9773 101.186 94.9773C101.354 94.9773 101.508 94.9536 101.648 94.9062C101.788 94.8589 101.907 94.7879 102.007 94.6932C102.106 94.5985 102.182 94.4825 102.234 94.3452L103.633 94.4375C103.562 94.7737 103.416 95.0672 103.196 95.3182C102.978 95.5668 102.697 95.7609 102.351 95.9006C102.008 96.0379 101.611 96.1065 101.161 96.1065ZM106.562 96.0888C106.148 96.0888 105.773 95.9822 105.436 95.7692C105.103 95.5537 104.837 95.2377 104.641 94.821C104.447 94.402 104.35 93.8883 104.35 93.2798C104.35 92.6548 104.45 92.1352 104.652 91.7209C104.853 91.3042 105.12 90.9929 105.454 90.7869C105.79 90.5786 106.158 90.4744 106.559 90.4744C106.864 90.4744 107.118 90.5265 107.322 90.6307C107.528 90.7325 107.694 90.8603 107.819 91.0142C107.947 91.1657 108.044 91.3149 108.11 91.4616H108.157V88.7273H109.666V96H108.174V95.1264H108.11C108.039 95.2779 107.939 95.4283 107.809 95.5774C107.681 95.7242 107.514 95.8461 107.308 95.9432C107.104 96.0402 106.856 96.0888 106.562 96.0888ZM107.041 94.8849C107.285 94.8849 107.491 94.8187 107.659 94.6861C107.83 94.5511 107.96 94.3629 108.05 94.1214C108.142 93.88 108.188 93.5971 108.188 93.2727C108.188 92.9484 108.144 92.6667 108.054 92.4276C107.964 92.1884 107.833 92.0038 107.663 91.8736C107.492 91.7434 107.285 91.6783 107.041 91.6783C106.793 91.6783 106.583 91.7457 106.413 91.8807C106.242 92.0156 106.113 92.2027 106.026 92.4418C105.938 92.6809 105.894 92.9579 105.894 93.2727C105.894 93.59 105.938 93.8705 106.026 94.1143C106.116 94.3558 106.245 94.5452 106.413 94.6825C106.583 94.8175 106.793 94.8849 107.041 94.8849Z" fill="#00C282" style="fill:#00C282;fill:color(display-p3 0.0000 0.7608 0.5098);fill-opacity:1;"/>
<defs>
<clipPath id="clip0_35852_112689">
<rect width="16" height="16" fill="white" style="fill:white;fill-opacity:1;" transform="translate(192 56)"/>
</clipPath>
<clipPath id="clip1_35852_112689">
<rect x="16" y="16" width="24" height="24" rx="12" fill="white" style="fill:white;fill-opacity:1;"/>
</clipPath>
<clipPath id="clip2_35852_112689">
<rect width="12" height="12" fill="white" style="fill:white;fill-opacity:1;" transform="translate(22 22)"/>
</clipPath>
</defs>
</svg>
