<svg width="480" height="160" viewBox="0 0 480 160" fill="none" xmlns="http://www.w3.org/2000/svg">
  <!-- Card background -->
  <rect x="12" y="8" width="456" height="144" rx="20" fill="white" filter="url(#cardShadow)"/>

  <!-- Icon circle -->
  <circle cx="168" cy="72" r="32" fill="#F4F3FF"/>
  <circle cx="168" cy="72" r="32" stroke="#EBE9FE" stroke-width="1"/>

  <!-- User icon (from user.svg, scaled to fit) -->
  <g transform="translate(144, 48) scale(0.75)">
    <path fill-rule="evenodd" clip-rule="evenodd" d="M11.9052 41.2392C14.4057 38.7387 17.7971 37.334 21.3333 37.334H42.6667C46.2029 37.334 49.5943 38.7387 52.0948 41.2392C54.5952 43.7397 56 47.1311 56 50.6673V56.0007C56 57.4734 54.8061 58.6673 53.3333 58.6673C51.8606 58.6673 50.6667 57.4734 50.6667 56.0007V50.6673C50.6667 48.5456 49.8238 46.5108 48.3235 45.0105C46.8232 43.5102 44.7884 42.6673 42.6667 42.6673H21.3333C19.2116 42.6673 17.1768 43.5102 15.6765 45.0105C14.1762 46.5108 13.3333 48.5456 13.3333 50.6673V56.0007C13.3333 57.4734 12.1394 58.6673 10.6667 58.6673C9.19391 58.6673 8 57.4734 8 56.0007V50.6673C8 47.1311 9.40476 43.7397 11.9052 41.2392Z" fill="#7C5CFC"/>
    <path fill-rule="evenodd" clip-rule="evenodd" d="M31.9998 10.6673C27.5816 10.6673 23.9998 14.249 23.9998 18.6673C23.9998 23.0856 27.5816 26.6673 31.9998 26.6673C36.4181 26.6673 39.9998 23.0856 39.9998 18.6673C39.9998 14.249 36.4181 10.6673 31.9998 10.6673ZM18.6665 18.6673C18.6665 11.3035 24.636 5.33398 31.9998 5.33398C39.3636 5.33398 45.3332 11.3035 45.3332 18.6673C45.3332 26.0311 39.3636 32.0006 31.9998 32.0006C24.636 32.0006 18.6665 26.0311 18.6665 18.6673Z" fill="#7C5CFC"/>
  </g>

  <!-- Checkmark badge -->
  <circle cx="190" cy="92" r="11" fill="#00C48C"/>
  <path d="M185 92l3.2 3.2 5.8-5.8" stroke="white" stroke-width="2.2" stroke-linecap="round" stroke-linejoin="round"/>

  <!-- Title text -->
  <text x="312" y="68" text-anchor="middle" font-family="Inter, -apple-system, sans-serif" font-size="16" font-weight="600" fill="#1A2B4B">Confirm it's you</text>

  <!-- Subtitle text -->
  <text x="312" y="92" text-anchor="middle" font-family="Inter, -apple-system, sans-serif" font-size="11.5" fill="#8A99AE">Verify your identity to continue</text>

  <defs>
    <filter id="cardShadow" x="0" y="0" width="480" height="168" filterUnits="userSpaceOnUse" color-interpolation-filters="sRGB">
      <feFlood flood-opacity="0" result="BackgroundImageFix"/>
      <feColorMatrix in="SourceAlpha" type="matrix" values="0 0 0 0 0 0 0 0 0 0 0 0 0 0 0 0 0 0 127 0" result="hardAlpha"/>
      <feOffset dy="4"/>
      <feGaussianBlur stdDeviation="6"/>
      <feComposite in2="hardAlpha" operator="out"/>
      <feColorMatrix type="matrix" values="0 0 0 0 0.102 0 0 0 0 0.169 0 0 0 0 0.294 0 0 0 0.08 0"/>
      <feBlend mode="normal" in2="BackgroundImageFix" result="shadow"/>
      <feBlend mode="normal" in="SourceGraphic" in2="shadow" result="shape"/>
    </filter>
  </defs>
</svg>
