<svg width="343" height="96" viewBox="0 0 343 96" fill="none" xmlns="http://www.w3.org/2000/svg">
<rect width="343" height="96" rx="16" fill="white" style="fill:white;fill-opacity:1;"/>
<rect x="16.5" y="48.5" width="203" height="31" rx="7.5" fill="white" style="fill:white;fill-opacity:1;"/>
<rect x="16.5" y="48.5" width="203" height="31" rx="7.5" stroke="#DFE5ED" style="stroke:#DFE5ED;stroke:color(display-p3 0.8750 0.8991 0.9292);stroke-opacity:1;"/>
<g clip-path="url(#clip0_34999_166473)">
<path d="M197.333 61.333H197.34M193.333 59.4663L193.333 62.4494C193.333 62.7755 193.333 62.9385 193.37 63.092C193.403 63.228 193.457 63.3581 193.53 63.4774C193.612 63.6119 193.728 63.7272 193.958 63.9578L199.071 69.0703C199.863 69.8623 200.259 70.2583 200.715 70.4067C201.117 70.5372 201.55 70.5372 201.951 70.4067C202.408 70.2583 202.804 69.8623 203.596 69.0703L205.071 67.5957C205.863 66.8037 206.259 66.4077 206.407 65.951C206.538 65.5494 206.538 65.1167 206.407 64.715C206.259 64.2583 205.863 63.8623 205.071 63.0703L199.958 57.9578C199.728 57.7272 199.612 57.6119 199.478 57.5295C199.358 57.4564 199.228 57.4025 199.092 57.3698C198.939 57.333 198.776 57.333 198.45 57.333L195.467 57.333C194.72 57.333 194.347 57.333 194.061 57.4783C193.811 57.6062 193.607 57.8101 193.479 58.061C193.333 58.3462 193.333 58.7196 193.333 59.4663ZM197.667 61.333C197.667 61.5171 197.517 61.6663 197.333 61.6663C197.149 61.6663 197 61.5171 197 61.333C197 61.1489 197.149 60.9997 197.333 60.9997C197.517 60.9997 197.667 61.1489 197.667 61.333Z" stroke="#D2D2D2" style="stroke:#D2D2D2;stroke:color(display-p3 0.8250 0.8250 0.8250);stroke-opacity:1;" stroke-width="2" stroke-linecap="round" stroke-linejoin="round"/>
</g>
<path d="M29.1449 69V59.5455H32.4503C33.1089 59.5455 33.6521 59.6593 34.0799 59.8871C34.5077 60.1117 34.8262 60.4149 35.0355 60.7965C35.2448 61.1751 35.3494 61.5952 35.3494 62.0568C35.3494 62.4631 35.2771 62.7985 35.1325 63.0632C34.9909 63.3279 34.8031 63.5372 34.5692 63.6911C34.3384 63.8449 34.0876 63.9588 33.8168 64.0327V64.125C34.1061 64.1435 34.3969 64.245 34.6893 64.4297C34.9817 64.6143 35.2263 64.879 35.4233 65.2237C35.6203 65.5684 35.7188 65.9901 35.7188 66.4886C35.7188 66.9626 35.611 67.3888 35.3956 67.7674C35.1802 68.146 34.8401 68.446 34.3754 68.6676C33.9106 68.8892 33.3059 69 32.5611 69H29.1449ZM30.2898 67.9844H32.5611C33.3089 67.9844 33.8398 67.8397 34.1538 67.5504C34.4708 67.258 34.6293 66.9041 34.6293 66.4886C34.6293 66.1686 34.5477 65.8731 34.3846 65.6023C34.2215 65.3284 33.9891 65.1098 33.6875 64.9467C33.3859 64.7805 33.0289 64.6974 32.6165 64.6974H30.2898V67.9844ZM30.2898 63.7003H32.4134C32.758 63.7003 33.0689 63.6326 33.3459 63.4972C33.6259 63.3617 33.8475 63.1709 34.0107 62.9247C34.1768 62.6785 34.2599 62.3892 34.2599 62.0568C34.2599 61.6413 34.1153 61.2889 33.826 60.9996C33.5367 60.7073 33.0781 60.5611 32.4503 60.5611H30.2898V63.7003ZM40.3329 69.1477C39.6928 69.1477 39.1311 68.9954 38.6479 68.6907C38.1678 68.386 37.7923 67.9598 37.5215 67.4119C37.2537 66.8641 37.1199 66.224 37.1199 65.4915C37.1199 64.7528 37.2537 64.1081 37.5215 63.5572C37.7923 63.0063 38.1678 62.5785 38.6479 62.2738C39.1311 61.9691 39.6928 61.8168 40.3329 61.8168C40.9731 61.8168 41.5332 61.9691 42.0133 62.2738C42.4965 62.5785 42.872 63.0063 43.1397 63.5572C43.4106 64.1081 43.546 64.7528 43.546 65.4915C43.546 66.224 43.4106 66.8641 43.1397 67.4119C42.872 67.9598 42.4965 68.386 42.0133 68.6907C41.5332 68.9954 40.9731 69.1477 40.3329 69.1477ZM40.3329 68.169C40.8192 68.169 41.2193 68.0444 41.5332 67.7951C41.8471 67.5458 42.0795 67.218 42.2303 66.8118C42.3811 66.4055 42.4565 65.9654 42.4565 65.4915C42.4565 65.0175 42.3811 64.5759 42.2303 64.1665C42.0795 63.7572 41.8471 63.4264 41.5332 63.174C41.2193 62.9216 40.8192 62.7955 40.3329 62.7955C39.8467 62.7955 39.4466 62.9216 39.1326 63.174C38.8187 63.4264 38.5864 63.7572 38.4355 64.1665C38.2847 64.5759 38.2093 65.0175 38.2093 65.4915C38.2093 65.9654 38.2847 66.4055 38.4355 66.8118C38.5864 67.218 38.8187 67.5458 39.1326 67.7951C39.4466 68.0444 39.8467 68.169 40.3329 68.169ZM46.2986 64.7344V69H45.2091V61.9091H46.2616V63.017H46.354C46.5202 62.657 46.7725 62.3677 47.1111 62.1491C47.4496 61.9276 47.8866 61.8168 48.4221 61.8168C48.9023 61.8168 49.3224 61.9152 49.6824 62.1122C50.0425 62.3061 50.3226 62.6016 50.5226 62.9986C50.7227 63.3925 50.8227 63.8911 50.8227 64.4943V69H49.7332V64.5682C49.7332 64.0111 49.5886 63.5772 49.2993 63.2663C49.01 62.9524 48.613 62.7955 48.1082 62.7955C47.7604 62.7955 47.4496 62.8709 47.1757 63.0217C46.9049 63.1725 46.691 63.3925 46.534 63.6818C46.377 63.9711 46.2986 64.322 46.2986 64.7344ZM57.2823 66.1009V61.9091H58.3718V69H57.2823V67.7997H57.2085C57.0423 68.1598 56.7837 68.466 56.4329 68.7184C56.082 68.9677 55.6388 69.0923 55.1033 69.0923C54.6602 69.0923 54.2662 68.9954 53.9215 68.8015C53.5768 68.6045 53.306 68.3091 53.109 67.9151C52.9121 67.5181 52.8136 67.018 52.8136 66.4148V61.9091H53.9031V66.3409C53.9031 66.858 54.0477 67.2704 54.337 67.5781C54.6294 67.8859 55.0018 68.0398 55.4542 68.0398C55.725 68.0398 56.0005 67.9705 56.2805 67.832C56.5637 67.6935 56.8007 67.4812 56.9915 67.195C57.1854 66.9087 57.2823 66.544 57.2823 66.1009ZM65.39 63.4972L64.4113 63.7741C64.3498 63.611 64.259 63.4525 64.1389 63.2987C64.022 63.1417 63.8619 63.0124 63.6588 62.9109C63.4557 62.8093 63.1956 62.7585 62.8786 62.7585C62.4447 62.7585 62.0831 62.8585 61.7938 63.0586C61.5075 63.2556 61.3644 63.5064 61.3644 63.8111C61.3644 64.0819 61.4629 64.2958 61.6599 64.4528C61.8569 64.6097 62.1646 64.7405 62.5832 64.8452L63.6357 65.1037C64.2697 65.2576 64.7422 65.493 65.053 65.81C65.3638 66.1239 65.5193 66.5286 65.5193 67.0241C65.5193 67.4304 65.4023 67.7936 65.1684 68.1136C64.9376 68.4337 64.6144 68.6861 64.199 68.8707C63.7835 69.0554 63.3003 69.1477 62.7494 69.1477C62.0261 69.1477 61.4275 68.9908 60.9536 68.6768C60.4796 68.3629 60.1795 67.9044 60.0534 67.3011L61.0874 67.0426C61.1859 67.4242 61.3721 67.7105 61.646 67.9013C61.923 68.0921 62.2847 68.1875 62.7309 68.1875C63.2387 68.1875 63.6419 68.0798 63.9404 67.8643C64.242 67.6458 64.3928 67.3842 64.3928 67.0795C64.3928 66.8333 64.3067 66.6271 64.1343 66.4609C63.962 66.2917 63.6973 66.1655 63.3403 66.0824L62.1585 65.8054C61.5091 65.6515 61.032 65.413 60.7274 65.0898C60.4258 64.7636 60.2749 64.3558 60.2749 63.8665C60.2749 63.4664 60.3873 63.1125 60.6119 62.8047C60.8397 62.4969 61.149 62.2553 61.5399 62.0799C61.9338 61.9045 62.3801 61.8168 62.8786 61.8168C63.5803 61.8168 64.1312 61.9706 64.5313 62.2784C64.9345 62.5862 65.2207 62.9924 65.39 63.4972ZM73.6962 69.1477C73.0314 69.1477 72.459 68.9908 71.9789 68.6768C71.4988 68.3629 71.1294 67.9305 70.8709 67.3796C70.6124 66.8287 70.4831 66.1993 70.4831 65.4915C70.4831 64.7713 70.6155 64.1358 70.8801 63.5849C71.1479 63.0309 71.5203 62.5985 71.9973 62.2876C72.4775 61.9737 73.0376 61.8168 73.6777 61.8168C74.1763 61.8168 74.6257 61.9091 75.0257 62.0938C75.4258 62.2784 75.7536 62.5369 76.0091 62.8693C76.2645 63.2017 76.423 63.5895 76.4846 64.0327H75.3951C75.312 63.7095 75.1273 63.4233 74.8411 63.174C74.5579 62.9216 74.1763 62.7955 73.6962 62.7955C73.2715 62.7955 72.8991 62.9062 72.579 63.1278C72.262 63.3464 72.0143 63.6557 71.8358 64.0558C71.6603 64.4528 71.5726 64.919 71.5726 65.4545C71.5726 66.0024 71.6588 66.4794 71.8311 66.8857C72.0066 67.2919 72.2528 67.6074 72.5698 67.832C72.8899 68.0567 73.2653 68.169 73.6962 68.169C73.9793 68.169 74.2363 68.1198 74.4672 68.0213C74.698 67.9228 74.8934 67.7812 75.0534 67.5966C75.2135 67.4119 75.3274 67.1903 75.3951 66.9318H76.4846C76.423 67.3504 76.2707 67.7274 76.0275 68.0629C75.7875 68.3952 75.4689 68.6599 75.0719 68.8569C74.678 69.0508 74.2194 69.1477 73.6962 69.1477ZM80.9579 69.1477C80.3178 69.1477 79.7561 68.9954 79.2729 68.6907C78.7928 68.386 78.4173 67.9598 78.1465 67.4119C77.8787 66.8641 77.7449 66.224 77.7449 65.4915C77.7449 64.7528 77.8787 64.1081 78.1465 63.5572C78.4173 63.0063 78.7928 62.5785 79.2729 62.2738C79.7561 61.9691 80.3178 61.8168 80.9579 61.8168C81.5981 61.8168 82.1582 61.9691 82.6383 62.2738C83.1215 62.5785 83.497 63.0063 83.7647 63.5572C84.0356 64.1081 84.171 64.7528 84.171 65.4915C84.171 66.224 84.0356 66.8641 83.7647 67.4119C83.497 67.9598 83.1215 68.386 82.6383 68.6907C82.1582 68.9954 81.5981 69.1477 80.9579 69.1477ZM80.9579 68.169C81.4442 68.169 81.8443 68.0444 82.1582 67.7951C82.4721 67.5458 82.7045 67.218 82.8553 66.8118C83.0061 66.4055 83.0815 65.9654 83.0815 65.4915C83.0815 65.0175 83.0061 64.5759 82.8553 64.1665C82.7045 63.7572 82.4721 63.4264 82.1582 63.174C81.8443 62.9216 81.4442 62.7955 80.9579 62.7955C80.4717 62.7955 80.0716 62.9216 79.7576 63.174C79.4437 63.4264 79.2114 63.7572 79.0605 64.1665C78.9097 64.5759 78.8343 65.0175 78.8343 65.4915C78.8343 65.9654 78.9097 66.4055 79.0605 66.8118C79.2114 67.218 79.4437 67.5458 79.7576 67.7951C80.0716 68.0444 80.4717 68.169 80.9579 68.169ZM88.5116 69.1477C87.9207 69.1477 87.3991 68.9985 86.9466 68.6999C86.4942 68.3983 86.1403 67.9736 85.8849 67.4258C85.6294 66.8749 85.5017 66.224 85.5017 65.473C85.5017 64.7282 85.6294 64.0819 85.8849 63.5341C86.1403 62.9863 86.4958 62.5631 86.9513 62.2646C87.4068 61.966 87.933 61.8168 88.5301 61.8168C88.9917 61.8168 89.3564 61.8937 89.6242 62.0476C89.895 62.1984 90.1012 62.3707 90.2428 62.5646C90.3875 62.7554 90.4998 62.9124 90.5798 63.0355H90.6721V59.5455H91.7616V69H90.7091V67.9105H90.5798C90.4998 68.0398 90.3859 68.2029 90.2382 68.3999C90.0905 68.5937 89.8796 68.7676 89.6057 68.9215C89.3318 69.0723 88.9671 69.1477 88.5116 69.1477ZM88.6594 68.169C89.0964 68.169 89.4657 68.0552 89.7673 67.8274C90.0689 67.5966 90.2982 67.2781 90.4552 66.8718C90.6121 66.4625 90.6906 65.9901 90.6906 65.4545C90.6906 64.9252 90.6137 64.462 90.4598 64.065C90.3059 63.6649 90.0782 63.354 89.7765 63.1325C89.4749 62.9078 89.1025 62.7955 88.6594 62.7955C88.1977 62.7955 87.813 62.9139 87.5052 63.1509C87.2006 63.3848 86.9713 63.7034 86.8174 64.1065C86.6666 64.5066 86.5912 64.956 86.5912 65.4545C86.5912 65.9593 86.6681 66.4179 86.822 66.8303C86.979 67.2396 87.2098 67.5658 87.5145 67.8089C87.8222 68.049 88.2039 68.169 88.6594 68.169ZM96.8813 69.1477C96.1981 69.1477 95.6087 68.9969 95.1132 68.6953C94.6208 68.3906 94.2407 67.9659 93.9729 67.4212C93.7082 66.8733 93.5759 66.2363 93.5759 65.5099C93.5759 64.7836 93.7082 64.1435 93.9729 63.5895C94.2407 63.0324 94.6131 62.5985 95.0901 62.2876C95.5702 61.9737 96.1304 61.8168 96.7705 61.8168C97.1398 61.8168 97.5045 61.8783 97.8646 62.0014C98.2247 62.1245 98.5525 62.3246 98.8479 62.6016C99.1434 62.8755 99.3788 63.2386 99.5542 63.6911C99.7297 64.1435 99.8174 64.7005 99.8174 65.3622V65.8239H94.3515V64.8821H98.7094C98.7094 64.482 98.6294 64.125 98.4694 63.8111C98.3124 63.4972 98.0877 63.2494 97.7954 63.0678C97.5061 62.8862 97.1644 62.7955 96.7705 62.7955C96.3366 62.7955 95.9611 62.9032 95.6441 63.1186C95.3302 63.331 95.0886 63.608 94.9193 63.9496C94.75 64.2912 94.6654 64.6574 94.6654 65.0483V65.6761C94.6654 66.2116 94.7577 66.6656 94.9424 67.038C95.1301 67.4073 95.3902 67.6889 95.7226 67.8828C96.055 68.0736 96.4412 68.169 96.8813 68.169C97.1675 68.169 97.426 68.129 97.6569 68.049C97.8908 67.9659 98.0924 67.8428 98.2616 67.6797C98.4309 67.5135 98.5617 67.3073 98.654 67.0611L99.7066 67.3565C99.5958 67.7135 99.4096 68.0275 99.148 68.2983C98.8864 68.5661 98.5632 68.7753 98.1785 68.9261C97.7938 69.0739 97.3614 69.1477 96.8813 69.1477Z" fill="#C2C6CC" style="fill:#C2C6CC;fill:color(display-p3 0.7600 0.7778 0.8000);fill-opacity:1;"/>
<g opacity="0.3">
<rect x="232" y="48" width="95" height="32" rx="16" fill="#121926" style="fill:#121926;fill:color(display-p3 0.0706 0.0980 0.1490);fill-opacity:1;"/>
<path d="M264.53 68H262.553L265.566 59.2727H267.944L270.952 68H268.975L266.789 61.267H266.721L264.53 68ZM264.407 64.5696H269.077V66.0099H264.407V64.5696ZM271.969 70.4545V61.4545H273.758V62.554H273.839C273.919 62.3778 274.034 62.1989 274.184 62.017C274.338 61.8324 274.537 61.679 274.781 61.5568C275.028 61.4318 275.335 61.3693 275.702 61.3693C276.179 61.3693 276.619 61.4943 277.023 61.7443C277.426 61.9915 277.748 62.3651 277.99 62.8651C278.231 63.3622 278.352 63.9858 278.352 64.7358C278.352 65.4659 278.234 66.0824 277.998 66.5852C277.765 67.0852 277.447 67.4645 277.044 67.723C276.643 67.9787 276.194 68.1065 275.697 68.1065C275.345 68.1065 275.045 68.0483 274.798 67.9318C274.554 67.8153 274.354 67.669 274.197 67.4929C274.041 67.3139 273.922 67.1335 273.839 66.9517H273.784V70.4545H271.969ZM273.746 64.7273C273.746 65.1165 273.8 65.456 273.907 65.7457C274.015 66.0355 274.172 66.2614 274.376 66.4233C274.581 66.5824 274.829 66.6619 275.122 66.6619C275.417 66.6619 275.667 66.581 275.872 66.419C276.077 66.2543 276.231 66.027 276.336 65.7372C276.444 65.4446 276.498 65.108 276.498 64.7273C276.498 64.3494 276.446 64.017 276.341 63.7301C276.236 63.4432 276.081 63.2187 275.876 63.0568C275.672 62.8949 275.42 62.8139 275.122 62.8139C274.827 62.8139 274.577 62.892 274.372 63.0483C274.17 63.2045 274.015 63.4261 273.907 63.7131C273.8 64 273.746 64.3381 273.746 64.7273ZM279.562 70.4545V61.4545H281.352V62.554H281.433C281.513 62.3778 281.628 62.1989 281.778 62.017C281.932 61.8324 282.131 61.679 282.375 61.5568C282.622 61.4318 282.929 61.3693 283.295 61.3693C283.773 61.3693 284.213 61.4943 284.616 61.7443C285.02 61.9915 285.342 62.3651 285.584 62.8651C285.825 63.3622 285.946 63.9858 285.946 64.7358C285.946 65.4659 285.828 66.0824 285.592 66.5852C285.359 67.0852 285.041 67.4645 284.638 67.723C284.237 67.9787 283.788 68.1065 283.291 68.1065C282.939 68.1065 282.639 68.0483 282.392 67.9318C282.148 67.8153 281.947 67.669 281.791 67.4929C281.635 67.3139 281.515 67.1335 281.433 66.9517H281.378V70.4545H279.562ZM281.339 64.7273C281.339 65.1165 281.393 65.456 281.501 65.7457C281.609 66.0355 281.765 66.2614 281.97 66.4233C282.175 66.5824 282.423 66.6619 282.716 66.6619C283.011 66.6619 283.261 66.581 283.466 66.419C283.67 66.2543 283.825 66.027 283.93 65.7372C284.038 65.4446 284.092 65.108 284.092 64.7273C284.092 64.3494 284.04 64.017 283.934 63.7301C283.829 63.4432 283.675 63.2187 283.47 63.0568C283.265 62.8949 283.014 62.8139 282.716 62.8139C282.42 62.8139 282.17 62.892 281.966 63.0483C281.764 63.2045 281.609 63.4261 281.501 63.7131C281.393 64 281.339 64.3381 281.339 64.7273ZM288.971 59.2727V68H287.156V59.2727H288.971ZM291.546 70.4545C291.316 70.4545 291.1 70.4361 290.899 70.3991C290.7 70.3651 290.535 70.321 290.404 70.267L290.813 68.9119C291.026 68.9773 291.218 69.0128 291.389 69.0185C291.562 69.0241 291.711 68.9844 291.836 68.8991C291.964 68.8139 292.068 68.669 292.147 68.4645L292.254 68.1875L289.906 61.4545H291.815L293.17 66.2614H293.238L294.606 61.4545H296.528L293.984 68.7074C293.862 69.0597 293.695 69.3665 293.485 69.6278C293.278 69.892 293.015 70.0952 292.697 70.2372C292.379 70.3821 291.995 70.4545 291.546 70.4545Z" fill="white" style="fill:white;fill-opacity:1;"/>
</g>
<g clip-path="url(#clip1_34999_166473)">
<rect x="16" y="16" width="24" height="24" rx="12" fill="#121926" style="fill:#121926;fill:color(display-p3 0.0706 0.0980 0.1490);fill-opacity:1;"/>
<g clip-path="url(#clip2_34999_166473)">
<path d="M26 26H26.005M23 24.6L23 26.8373C23 27.0818 23 27.2041 23.0276 27.3192C23.0521 27.4213 23.0925 27.5188 23.1474 27.6083C23.2092 27.7092 23.2957 27.7957 23.4686 27.9686L27.3029 31.8029C27.897 32.397 28.194 32.694 28.5365 32.8053C28.8377 32.9031 29.1623 32.9031 29.4635 32.8053C29.806 32.694 30.103 32.397 30.6971 31.8029L31.8029 30.6971C32.397 30.103 32.694 29.806 32.8053 29.4635C32.9031 29.1623 32.9031 28.8377 32.8053 28.5365C32.694 28.194 32.397 27.897 31.8029 27.3029L27.9686 23.4686C27.7957 23.2957 27.7092 23.2092 27.6083 23.1474C27.5188 23.0925 27.4213 23.0521 27.3192 23.0276C27.2041 23 27.0818 23 26.8373 23L24.6 23C24.0399 23 23.7599 23 23.546 23.109C23.3578 23.2049 23.2049 23.3578 23.109 23.546C23 23.7599 23 24.0399 23 24.6ZM26.25 26C26.25 26.1381 26.1381 26.25 26 26.25C25.8619 26.25 25.75 26.1381 25.75 26C25.75 25.8619 25.8619 25.75 26 25.75C26.1381 25.75 26.25 25.8619 26.25 26Z" stroke="white" style="stroke:white;stroke-opacity:1;" stroke-width="0.979592" stroke-linecap="round" stroke-linejoin="round"/>
</g>
</g>
<path d="M48.8217 33V23.5455H52.6072C53.3028 23.5455 53.8829 23.6486 54.3477 23.8548C54.8124 24.061 55.1617 24.3472 55.3956 24.7134C55.6295 25.0766 55.7464 25.4951 55.7464 25.9691C55.7464 26.3384 55.6726 26.6631 55.5249 26.9432C55.3771 27.2202 55.174 27.4479 54.9155 27.6264C54.66 27.8018 54.3677 27.9265 54.0384 28.0004V28.0927C54.3984 28.1081 54.7354 28.2096 55.0494 28.3974C55.3664 28.5851 55.6233 28.8482 55.8203 29.1868C56.0173 29.5223 56.1158 29.9223 56.1158 30.3871C56.1158 30.8887 55.9911 31.3365 55.7418 31.7305C55.4956 32.1213 55.1309 32.4306 54.6477 32.6584C54.1645 32.8861 53.569 33 52.8612 33H48.8217ZM50.8207 31.3658H52.4503C53.0073 31.3658 53.4136 31.2596 53.669 31.0472C53.9245 30.8318 54.0522 30.5456 54.0522 30.1886C54.0522 29.927 53.9891 29.6961 53.8629 29.4961C53.7367 29.296 53.5567 29.1391 53.3228 29.0252C53.092 28.9113 52.8165 28.8544 52.4964 28.8544H50.8207V31.3658ZM50.8207 27.5018H52.3026C52.5765 27.5018 52.8196 27.4541 53.032 27.3587C53.2474 27.2602 53.4167 27.1217 53.5398 26.9432C53.666 26.7647 53.729 26.5508 53.729 26.3015C53.729 25.9599 53.6075 25.6844 53.3643 25.4751C53.1243 25.2659 52.7827 25.1612 52.3395 25.1612H50.8207V27.5018ZM60.5834 33.1385C59.8663 33.1385 59.2461 32.9862 58.7229 32.6815C58.2028 32.3737 57.8012 31.9459 57.518 31.3981C57.2349 30.8472 57.0933 30.2086 57.0933 29.4822C57.0933 28.7498 57.2349 28.1096 57.518 27.5618C57.8012 27.0109 58.2028 26.5831 58.7229 26.2784C59.2461 25.9706 59.8663 25.8168 60.5834 25.8168C61.3005 25.8168 61.9191 25.9706 62.4392 26.2784C62.9624 26.5831 63.3656 27.0109 63.6487 27.5618C63.9318 28.1096 64.0734 28.7498 64.0734 29.4822C64.0734 30.2086 63.9318 30.8472 63.6487 31.3981C63.3656 31.9459 62.9624 32.3737 62.4392 32.6815C61.9191 32.9862 61.3005 33.1385 60.5834 33.1385ZM60.5926 31.6151C60.9188 31.6151 61.1912 31.5227 61.4097 31.3381C61.6282 31.1503 61.7929 30.8949 61.9037 30.5717C62.0175 30.2486 62.0745 29.8808 62.0745 29.4684C62.0745 29.056 62.0175 28.6882 61.9037 28.3651C61.7929 28.0419 61.6282 27.7865 61.4097 27.5987C61.1912 27.411 60.9188 27.3171 60.5926 27.3171C60.2633 27.3171 59.9863 27.411 59.7616 27.5987C59.54 27.7865 59.3723 28.0419 59.2584 28.3651C59.1476 28.6882 59.0922 29.056 59.0922 29.4684C59.0922 29.8808 59.1476 30.2486 59.2584 30.5717C59.3723 30.8949 59.54 31.1503 59.7616 31.3381C59.9863 31.5227 60.2633 31.6151 60.5926 31.6151ZM67.3188 28.9006V33H65.3522V25.9091H67.2265V27.1602H67.3096C67.4665 26.7478 67.7297 26.4215 68.099 26.1815C68.4683 25.9383 68.9161 25.8168 69.4424 25.8168C69.9348 25.8168 70.3641 25.9245 70.7304 26.1399C71.0966 26.3554 71.3813 26.6631 71.5844 27.0632C71.7876 27.4602 71.8891 27.9342 71.8891 28.4851V33H69.9225V28.8359C69.9256 28.402 69.8148 28.0634 69.5901 27.8203C69.3654 27.5741 69.0561 27.451 68.6622 27.451C68.3975 27.451 68.1636 27.5079 67.9605 27.6218C67.7604 27.7357 67.6035 27.9019 67.4896 28.1204C67.3788 28.3358 67.3219 28.5959 67.3188 28.9006ZM77.9863 29.9808V25.9091H79.9529V33H78.0648V31.712H77.9909C77.8309 32.1275 77.5647 32.4614 77.1923 32.7138C76.823 32.9661 76.3721 33.0923 75.8397 33.0923C75.3657 33.0923 74.9487 32.9846 74.5886 32.7692C74.2285 32.5537 73.9469 32.2475 73.7438 31.8505C73.5437 31.4535 73.4422 30.978 73.4391 30.424V25.9091H75.4057V30.0732C75.4088 30.4917 75.5211 30.8226 75.7427 31.0657C75.9643 31.3088 76.2613 31.4304 76.6337 31.4304C76.8707 31.4304 77.0923 31.3765 77.2985 31.2688C77.5047 31.158 77.6709 30.9949 77.7971 30.7795C77.9263 30.564 77.9894 30.2978 77.9863 29.9808ZM87.4259 27.9311L85.6254 28.0419C85.5947 27.888 85.5285 27.7495 85.4269 27.6264C85.3254 27.5002 85.1915 27.4002 85.0253 27.3263C84.8622 27.2494 84.6668 27.2109 84.439 27.2109C84.1343 27.2109 83.8773 27.2756 83.6681 27.4048C83.4588 27.531 83.3541 27.7003 83.3541 27.9126C83.3541 28.0819 83.4218 28.225 83.5573 28.342C83.6927 28.4589 83.925 28.5528 84.2544 28.6236L85.5377 28.8821C86.2271 29.0237 86.7411 29.2514 87.0796 29.5653C87.4182 29.8793 87.5874 30.2917 87.5874 30.8026C87.5874 31.2673 87.4505 31.6751 87.1766 32.0259C86.9057 32.3768 86.5334 32.6507 86.0594 32.8477C85.5885 33.0415 85.0453 33.1385 84.4298 33.1385C83.4911 33.1385 82.7432 32.9431 82.1862 32.5522C81.6322 32.1583 81.3075 31.6228 81.2121 30.9457L83.1464 30.8441C83.2049 31.1303 83.3464 31.3488 83.5711 31.4996C83.7958 31.6474 84.0835 31.7212 84.4344 31.7212C84.7791 31.7212 85.0561 31.6551 85.2654 31.5227C85.4777 31.3873 85.5854 31.2134 85.5885 31.0011C85.5854 30.8226 85.51 30.6764 85.3623 30.5625C85.2146 30.4455 84.9868 30.3563 84.6791 30.2947L83.4511 30.0501C82.7586 29.9116 82.2431 29.6715 81.9046 29.3299C81.5691 28.9883 81.4014 28.5528 81.4014 28.0234C81.4014 27.5679 81.5245 27.1755 81.7707 26.8462C82.02 26.5169 82.3693 26.263 82.8186 26.0845C83.271 25.906 83.8004 25.8168 84.4067 25.8168C85.3023 25.8168 86.0071 26.006 86.521 26.3846C87.0381 26.7631 87.3397 27.2786 87.4259 27.9311ZM95.0384 33.1385C94.3121 33.1385 93.6874 32.9846 93.1642 32.6768C92.644 32.366 92.2439 31.9351 91.9639 31.3842C91.6869 30.8333 91.5484 30.1993 91.5484 29.4822C91.5484 28.7559 91.6884 28.1188 91.9685 27.571C92.2516 27.0201 92.6533 26.5908 93.1734 26.283C93.6935 25.9722 94.3121 25.8168 95.0292 25.8168C95.6478 25.8168 96.1895 25.9291 96.6542 26.1538C97.1189 26.3784 97.4867 26.6939 97.7575 27.1001C98.0284 27.5064 98.1776 27.9834 98.2053 28.5312H96.3495C96.2972 28.1773 96.1587 27.8926 95.934 27.6772C95.7124 27.4587 95.4216 27.3494 95.0615 27.3494C94.7568 27.3494 94.4906 27.4325 94.2629 27.5987C94.0382 27.7618 93.8628 28.0004 93.7366 28.3143C93.6104 28.6282 93.5473 29.0083 93.5473 29.4545C93.5473 29.907 93.6089 30.2917 93.732 30.6087C93.8582 30.9257 94.0351 31.1673 94.2629 31.3335C94.4906 31.4996 94.7568 31.5827 95.0615 31.5827C95.2862 31.5827 95.4878 31.5366 95.6663 31.4442C95.8479 31.3519 95.9971 31.218 96.1141 31.0426C96.2341 30.8641 96.3126 30.6502 96.3495 30.4009H98.2053C98.1746 30.9426 98.0268 31.4196 97.7622 31.832C97.5006 32.2414 97.1389 32.5614 96.6773 32.7923C96.2156 33.0231 95.6694 33.1385 95.0384 33.1385ZM102.668 33.1385C101.951 33.1385 101.331 32.9862 100.808 32.6815C100.288 32.3737 99.8861 31.9459 99.603 31.3981C99.3198 30.8472 99.1783 30.2086 99.1783 29.4822C99.1783 28.7498 99.3198 28.1096 99.603 27.5618C99.8861 27.0109 100.288 26.5831 100.808 26.2784C101.331 25.9706 101.951 25.8168 102.668 25.8168C103.385 25.8168 104.004 25.9706 104.524 26.2784C105.047 26.5831 105.451 27.0109 105.734 27.5618C106.017 28.1096 106.158 28.7498 106.158 29.4822C106.158 30.2086 106.017 30.8472 105.734 31.3981C105.451 31.9459 105.047 32.3737 104.524 32.6815C104.004 32.9862 103.385 33.1385 102.668 33.1385ZM102.678 31.6151C103.004 31.6151 103.276 31.5227 103.495 31.3381C103.713 31.1503 103.878 30.8949 103.989 30.5717C104.103 30.2486 104.159 29.8808 104.159 29.4684C104.159 29.056 104.103 28.6882 103.989 28.3651C103.878 28.0419 103.713 27.7865 103.495 27.5987C103.276 27.411 103.004 27.3171 102.678 27.3171C102.348 27.3171 102.071 27.411 101.847 27.5987C101.625 27.7865 101.457 28.0419 101.343 28.3651C101.233 28.6882 101.177 29.056 101.177 29.4684C101.177 29.8808 101.233 30.2486 101.343 30.5717C101.457 30.8949 101.625 31.1503 101.847 31.3381C102.071 31.5227 102.348 31.6151 102.678 31.6151ZM110.05 33.1154C109.511 33.1154 109.024 32.9769 108.587 32.6999C108.153 32.4199 107.808 32.009 107.553 31.4673C107.3 30.9226 107.174 30.2547 107.174 29.4638C107.174 28.6513 107.305 27.9757 107.566 27.4371C107.828 26.8955 108.176 26.4908 108.61 26.223C109.047 25.9522 109.525 25.8168 110.045 25.8168C110.442 25.8168 110.773 25.8845 111.038 26.0199C111.306 26.1522 111.521 26.3184 111.684 26.5185C111.85 26.7154 111.977 26.9093 112.063 27.1001H112.123V23.5455H114.085V33H112.146V31.8643H112.063C111.971 32.0613 111.84 32.2567 111.67 32.4506C111.504 32.6415 111.287 32.8 111.02 32.9261C110.755 33.0523 110.432 33.1154 110.05 33.1154ZM110.673 31.5504C110.99 31.5504 111.258 31.4643 111.477 31.2919C111.698 31.1165 111.867 30.8718 111.984 30.5579C112.104 30.244 112.164 29.8762 112.164 29.4545C112.164 29.0329 112.106 28.6667 111.989 28.3558C111.872 28.045 111.703 27.8049 111.481 27.6357C111.26 27.4664 110.99 27.3817 110.673 27.3817C110.35 27.3817 110.078 27.4695 109.856 27.6449C109.635 27.8203 109.467 28.0634 109.353 28.3743C109.239 28.6851 109.182 29.0452 109.182 29.4545C109.182 29.867 109.239 30.2317 109.353 30.5487C109.47 30.8626 109.638 31.1088 109.856 31.2873C110.078 31.4627 110.35 31.5504 110.673 31.5504ZM118.933 33.1385C118.204 33.1385 117.576 32.9908 117.05 32.6953C116.527 32.3968 116.123 31.9751 115.84 31.4304C115.557 30.8826 115.416 30.2347 115.416 29.4869C115.416 28.7575 115.557 28.1173 115.84 27.5664C116.123 27.0155 116.522 26.5862 117.036 26.2784C117.553 25.9706 118.159 25.8168 118.855 25.8168C119.323 25.8168 119.758 25.8922 120.161 26.043C120.568 26.1907 120.921 26.4138 121.223 26.7124C121.528 27.0109 121.765 27.3864 121.934 27.8388C122.103 28.2881 122.188 28.8144 122.188 29.4176V29.9577H116.2V28.739H120.337C120.337 28.4558 120.275 28.205 120.152 27.9865C120.029 27.768 119.858 27.5972 119.64 27.4741C119.424 27.3479 119.173 27.2848 118.887 27.2848C118.589 27.2848 118.324 27.354 118.093 27.4925C117.865 27.628 117.687 27.8111 117.558 28.0419C117.428 28.2696 117.362 28.5236 117.359 28.8036V29.9624C117.359 30.3132 117.424 30.6164 117.553 30.8718C117.685 31.1272 117.872 31.3242 118.112 31.4627C118.352 31.6012 118.636 31.6705 118.966 31.6705C119.184 31.6705 119.384 31.6397 119.566 31.5781C119.747 31.5166 119.903 31.4242 120.032 31.3011C120.161 31.178 120.26 31.0272 120.328 30.8487L122.146 30.9688C122.054 31.4058 121.865 31.7874 121.579 32.1136C121.295 32.4368 120.929 32.6892 120.48 32.8707C120.034 33.0492 119.518 33.1385 118.933 33.1385Z" fill="#121926" style="fill:#121926;fill:color(display-p3 0.0706 0.0980 0.1490);fill-opacity:1;"/>
<defs>
<clipPath id="clip0_34999_166473">
<rect width="16" height="16" fill="white" style="fill:white;fill-opacity:1;" transform="translate(192 56)"/>
</clipPath>
<clipPath id="clip1_34999_166473">
<rect x="16" y="16" width="24" height="24" rx="12" fill="white" style="fill:white;fill-opacity:1;"/>
</clipPath>
<clipPath id="clip2_34999_166473">
<rect width="12" height="12" fill="white" style="fill:white;fill-opacity:1;" transform="translate(22 22)"/>
</clipPath>
</defs>
</svg>
