<svg width="670" height="210" viewBox="0 0 670 210" fill="none" xmlns="http://www.w3.org/2000/svg">
<rect width="210" height="210" rx="40" fill="url(#paint0_linear_282_2031)"/>
<rect width="210" height="210" rx="40" fill="url(#paint1_linear_282_2031)"/>
<g clip-path="url(#clip0_282_2031)">
<path opacity="0.9" d="M148.744 145.882L98.4888 127.395C88.3389 123.661 81.136 114.569 79.8324 103.846L73.9201 55.1887C73.349 50.4851 77.9607 46.8408 82.4124 48.479L134.878 67.7782C144.171 71.1972 150.767 79.5222 151.961 89.3415L157.947 138.61C158.567 143.707 153.568 147.657 148.744 145.882Z" fill="white" style="fill:white;fill-opacity:1;"/>
<path opacity="0.6" d="M126.872 161.569L76.6172 143.083C66.4673 139.349 59.2644 130.257 57.9608 119.534L52.0486 70.875C51.4775 66.1714 56.0891 62.5271 60.5408 64.1653L113.006 83.4645C122.299 86.8835 128.895 95.2085 130.089 105.028L136.076 154.297C136.695 159.394 131.697 163.343 126.872 161.568V161.569Z" fill="white" style="fill:white;fill-opacity:1;"/>
<path opacity="0.6" d="M80.9504 48.1184C80.9504 48.1184 56.3846 45.0658 52.08 70.0581L58.2036 120.678C58.2036 120.678 59.0545 130.077 67.7609 137.809C67.7609 137.809 67.5196 119.33 88.8315 121.406C88.8315 121.406 81.1645 115.161 79.8467 103.84C78.3176 90.7046 74.7668 61.9098 74.0087 55.7733C73.8431 54.4345 73.8074 53.1927 74.3471 51.9565C75.1637 50.0874 77.3253 47.7762 80.9489 48.1184H80.9504Z" fill="white" style="fill:white;fill-opacity:1;"/>
</g>
<path fill-rule="evenodd" clip-rule="evenodd" d="M353.511 35.2V175.8H379.311V35.2H353.511ZM334.6 62.2H278.6V95.4H333V121.8H278.6V175.8H251V35.8H334.6V62.2ZM494.725 75.8H468.925V129.8C468.925 138.067 466.925 144.267 462.925 148.4C458.925 152.533 453.592 154.6 446.925 154.6C440.925 154.6 436.125 152.867 432.525 149.4C428.925 145.8 427.125 140.667 427.125 134V75.8H401.325V137.2C401.325 150.133 404.858 160.267 411.925 167.6C419.125 174.933 428.192 178.6 439.125 178.6C452.725 178.6 462.658 173.933 468.925 164.6V175.8H494.725V75.8ZM531.155 63.8C526.888 63.8 523.155 62.2667 519.955 59.2C516.888 56 515.355 52.2667 515.355 48C515.355 43.7333 516.888 40 519.955 36.8C523.155 33.6 526.888 32 531.155 32C535.555 32 539.288 33.6 542.355 36.8C545.555 40 547.155 43.7333 547.155 48C547.155 52.2667 545.555 56 542.355 59.2C539.288 62.2667 535.555 63.8 531.155 63.8ZM518.355 175.8V75.8H544.155V175.8H518.355ZM669.369 35.8H643.569V87.6C635.969 77.8667 625.169 73 611.169 73C597.702 73 586.169 78.1333 576.569 88.4C567.102 98.5333 562.369 111 562.369 125.8C562.369 140.6 567.102 153.133 576.569 163.4C586.169 173.533 597.702 178.6 611.169 178.6C625.169 178.6 635.969 173.733 643.569 164V175.8H669.369V35.8ZM615.969 154C607.969 154 601.302 151.4 595.969 146.2C590.769 140.867 588.169 134.067 588.169 125.8C588.169 117.533 590.769 110.8 595.969 105.6C601.302 100.267 607.969 97.6 615.969 97.6C623.969 97.6 630.569 100.267 635.769 105.6C640.969 110.8 643.569 117.533 643.569 125.8C643.569 134.067 640.969 140.867 635.769 146.2C630.569 151.4 623.969 154 615.969 154Z" fill="#202939" style="fill:#202939;fill:color(display-p3 0.1255 0.1608 0.2235);fill-opacity:1;"/>
<defs>
<linearGradient id="paint0_linear_282_2031" x1="0" y1="0" x2="252.22" y2="85.5999" gradientUnits="userSpaceOnUse">
<stop stop-color="#3F68F5" style="stop-color:#3F68F5;stop-color:color(display-p3 0.2471 0.4078 0.9608);stop-opacity:1;"/>
<stop offset="1" stop-color="#8CA4F9" style="stop-color:#8CA4F9;stop-color:color(display-p3 0.5490 0.6431 0.9765);stop-opacity:1;"/>
</linearGradient>
<linearGradient id="paint1_linear_282_2031" x1="15" y1="-1.30723e-05" x2="238.666" y2="99.6833" gradientUnits="userSpaceOnUse">
<stop stop-color="#A74FEC" style="stop-color:#A74FEC;stop-color:color(display-p3 0.6546 0.3098 0.9255);stop-opacity:1;"/>
<stop offset="0.546875" stop-color="#5F6CFA" style="stop-color:#5F6CFA;stop-color:color(display-p3 0.3725 0.4235 0.9804);stop-opacity:1;"/>
<stop offset="1" stop-color="#8CA4F9" style="stop-color:#8CA4F9;stop-color:color(display-p3 0.5490 0.6431 0.9765);stop-opacity:1;"/>
</linearGradient>
<clipPath id="clip0_282_2031">
<rect width="106" height="114" fill="white" style="fill:white;fill-opacity:1;" transform="translate(52 48)"/>
</clipPath>
</defs>
</svg>
